<?xml version="1.0" standalone="no"?><!-- Generator: Gravit.io --><svg xmlns="http://www.w3.org/2000/svg" xmlns:xlink="http://www.w3.org/1999/xlink" style="isolation:isolate" viewBox="0 0 2000 462" width="2000" height="462"><path d=" M 1981.969 433.208 L 1987.358 433.332 L 1987.358 426.691 L 1981.969 426.888 L 1982.047 421.594 L 1976.958 421.488 L 1976.958 408.105 L 1973.76 407.863 L 1973.508 404.165 L 1965.008 402.193 L 1965.332 398.522 L 1970.059 398.62 L 1970.181 396.153 L 1973.384 395.044 L 1974.121 391.961 L 1977.082 391.102 L 1974.739 368.424 C 1974.739 368.424 1985.59 355.726 1985.216 355.726 C 1984.843 355.726 1978.681 347.84 1978.681 347.84 L 1972.641 352.773 L 1965.991 339.87 L 1960.073 339.87 L 1955.805 334.158 L 1959.262 330.341 L 1959.627 324.545 L 1965.913 323.682 L 1960.123 321.96 L 1965.913 318.509 L 1958.397 318.261 L 1962.71 313.208 L 1955.685 316.783 L 1955.07 310.373 L 1952.113 316.411 L 1950.139 316.287 L 1945.953 312.837 L 1948.041 318.875 L 1943.603 318.261 L 1943.603 313.77 L 1942.548 313.204 L 1942.123 296.816 L 1939.351 292.946 L 1939.415 292.133 L 1944.466 292.013 L 1944.466 287.45 L 1943.234 285.845 L 1939.535 285.601 L 1939.17 284.267 L 1943.234 283.753 L 1943.234 280.053 L 1941.881 277.911 L 1941.757 276.111 L 1940.278 274.388 L 1942.39 269.951 L 1942.39 266.744 L 1933.865 277.911 L 1933.865 282.52 L 1935.345 284.267 L 1935.717 285.356 L 1934.234 285.356 L 1932.754 287.328 L 1932.754 292.257 L 1934.974 293.488 L 1934.992 299.182 L 1937.821 299.182 L 1937.821 304.924 L 1933.255 325.728 L 1933.255 333.994 L 1935.865 336.17 L 1935.865 345.309 L 1938.079 350.046 L 1935.865 362.278 L 1935.865 367.065 L 1938.38 367.065 L 1938.808 369.357 L 1938.482 379.251 L 1940.442 379.251 L 1940.518 390.153 L 1938.482 397.959 L 1938.482 420.796 L 1934.234 420.711 L 1934.234 426.761 L 1928.26 426.691 L 1929.585 433.995 L 1934.63 433.964 L 1928.928 444.625 C 1928.928 444.625 1926.268 425.358 1904.346 413.406 C 1902.336 412.309 1900.346 411.398 1898.382 410.575 C 1888.393 398.287 1869.486 400.568 1869.486 400.568 L 1869.486 390.73 L 1865.524 391.945 C 1864.349 387.755 1862.201 385.529 1860.297 384.336 L 1860.297 315.516 L 1835.631 315.516 L 1835.631 366.246 L 1833.939 366.246 L 1833.939 387.535 L 1832.976 388.498 L 1826.322 388.498 L 1826.322 192.339 L 1795.043 191.951 L 1795.043 349.926 C 1791.956 350.34 1789.199 351.387 1786.935 352.564 L 1786.935 208.945 L 1763.958 185.969 L 1736.351 208.585 L 1736.701 331.976 C 1732.563 331.47 1728.91 332.066 1725.811 333.195 L 1725.811 100.485 L 1710.372 100.301 L 1710.105 97.111 L 1722.153 97.204 L 1725.811 95.51 L 1725.811 92.853 L 1722.878 90.459 L 1709.843 90.193 L 1707.713 0 L 1705.457 90.213 L 1691.751 90.213 L 1688.822 92.321 L 1689.087 95.51 L 1692.28 97.111 L 1705.457 97.111 L 1705.457 99.666 L 1687.717 99.666 L 1687.717 323.368 L 1681.167 317.756 L 1670.542 329.714 L 1670.542 344.326 L 1667.219 344.326 L 1667.219 378.864 L 1663.896 378.864 L 1663.896 394.354 L 1656.783 394.354 L 1656.783 313.77 L 1649.274 313.77 L 1649.274 289.074 L 1634.855 289.074 L 1634.855 313.77 L 1632.978 313.77 L 1632.978 335.98 L 1610.465 335.98 L 1610.465 339.65 C 1607.404 339.61 1605.445 339.58 1605.445 339.58 L 1605.445 340.819 L 1603.475 340.819 L 1603.475 324.487 L 1599.375 324.487 L 1599.375 316.793 L 1570.913 316.793 L 1570.913 354.506 L 1560.52 354.506 L 1560.52 384.844 L 1555.347 384.844 L 1555.347 379.345 L 1546.549 379.345 L 1546.549 375.723 L 1542.407 375.723 L 1542.407 370.55 L 1537.233 370.55 L 1537.233 384.844 L 1533.71 384.844 L 1533.71 358.272 L 1526.403 313.77 L 1519.092 358.272 L 1519.092 383.517 L 1516.579 384.146 L 1516.579 304.223 L 1478.51 304.223 L 1478.51 320.349 L 1473.058 320.349 L 1473.058 352.647 L 1471.373 352.647 L 1468.614 339.58 L 1465.067 352.647 L 1455.459 352.647 L 1455.459 322.935 L 1448.212 322.935 L 1448.212 329.145 L 1427.51 329.145 L 1427.51 324.487 L 1417.682 324.487 L 1417.682 331.214 L 1410.431 331.214 L 1410.431 326.038 L 1402.673 326.038 L 1402.673 352.961 C 1398.868 353.115 1394.613 353.199 1393.558 352.893 C 1394.147 354.951 1393.316 369.277 1393.316 369.277 L 1387.58 369.277 L 1387.58 386.838 L 1382.926 386.838 L 1382.926 358.939 L 1377.615 348.973 L 1372.299 360.929 L 1372.299 380.86 L 1368.362 380.86 L 1368.362 307.552 L 1341.009 307.552 L 1341.009 319.312 L 1337.978 319.312 L 1337.978 344.515 L 1328.144 344.515 L 1328.144 308.96 L 1310.701 308.96 L 1310.701 280.376 L 1288.521 280.376 L 1288.521 294.473 L 1267.074 294.473 L 1267.074 350.302 L 1265.028 350.302 L 1265.028 373.221 L 1263.018 375.231 L 1263.018 199.993 L 1258.952 199.993 L 1258.952 171.162 L 1254.888 171.162 L 1254.888 158.966 L 1250.82 158.966 L 1250.82 154.158 L 1246.386 154.158 L 1246.386 147.505 L 1242.69 148.246 L 1242.69 144.922 L 1240.472 144.552 C 1240.472 144.552 1240.266 116.454 1240.472 111.285 C 1240.698 105.492 1234.62 104.937 1234.62 104.937 L 1234.62 90.213 L 1232.776 90.213 L 1232.776 104.813 C 1225.659 105.079 1225.315 110.545 1225.315 110.545 L 1225.315 147.505 L 1219.773 147.505 L 1219.773 153.421 L 1215.339 153.421 L 1215.339 159.333 L 1210.901 159.705 L 1210.901 170.051 L 1207.572 170.423 L 1207.572 199.622 L 1205.357 199.622 L 1205.357 346.595 L 1201.938 349.323 L 1201.938 352.304 C 1201.736 352.3 1201.594 352.296 1201.594 352.296 L 1201.594 360.714 L 1196.789 360.714 L 1196.789 277.911 L 1174.137 277.911 L 1174.137 366.927 L 1173.164 366.927 L 1162.533 356.296 L 1162.533 293.438 L 1162.533 284.121 L 1155.807 284.121 L 1155.807 277.911 L 1138.097 277.911 L 1138.097 236.1 L 1122.39 236.1 L 1122.39 322.405 L 1107.723 322.405 L 1107.723 249.489 L 1088.673 249.489 L 1088.673 360.714 L 1083.87 360.714 L 1083.87 353.986 L 1076.056 354.362 L 1076.056 344.989 L 1075.59 344.989 L 1075.59 338.979 L 1068.341 338.979 L 1068.341 333.804 L 1066.02 333.804 L 1066.02 284.494 L 1039.761 284.494 L 1039.761 329.662 L 1034.612 329.662 L 1034.612 284.494 L 1011.05 284.494 L 1011.05 321.9 L 1003.651 321.9 L 1003.651 337.247 L 1000.996 335.692 L 997.673 339.58 L 997.673 345.652 L 994.356 346.32 L 994.356 379.483 L 989.139 379.483 L 989.139 274.394 L 986.897 272.153 L 986.897 260.606 L 982.396 256.106 L 982.396 229.658 L 976.08 223.586 L 976.08 215.33 L 975.109 214.114 L 975.109 207.316 L 973.409 205.858 L 973.409 197.118 L 970.979 196.635 L 970.979 187.893 L 970.01 187.162 L 970.01 181.58 L 968.551 180.363 L 968.551 175.266 L 966.611 171.138 L 966.551 131.77 L 966.551 132.5 L 965.64 171.138 L 964.423 171.138 L 964.423 178.421 L 960.903 185.951 L 960.903 192.385 L 957.141 196.147 L 957.141 204.403 L 954.649 204.403 L 954.649 213.324 L 952.891 215.089 L 952.891 222.252 L 951.554 223.586 L 951.554 231.111 L 950.12 231.111 L 950.12 256.914 L 946.519 256.914 L 946.519 263.515 L 942.321 263.515 L 942.321 374.882 L 937.23 374.882 L 937.23 368.901 L 934.299 368.901 L 934.299 313.77 L 886.772 313.77 L 886.772 383.617 C 883.059 383.845 879.441 383.821 879.441 382.852 L 879.441 393.323 L 877.371 395.393 L 877.371 360.714 L 863.914 360.714 L 863.914 396.798 L 857.189 396.798 L 857.189 351.92 L 825.616 351.92 L 825.616 413.272 L 817.596 413.272 L 817.596 381.671 L 786.448 381.671 L 786.448 404.023 L 786.448 464 L 1999.998 463.225 C 2000.234 439.302 1981.969 433.208 1981.969 433.208 Z " fill="rgb(49,49,49)"/><path d=" M -377.925 433.208 L -383.314 433.332 L -383.314 426.691 L -377.925 426.888 L -378.003 421.594 L -372.914 421.488 L -372.914 408.105 L -369.715 407.863 L -369.464 404.165 L -360.964 402.193 L -361.288 398.522 L -366.015 398.62 L -366.137 396.153 L -369.34 395.044 L -370.077 391.961 L -373.038 391.102 L -370.694 368.424 C -370.694 368.424 -381.546 355.726 -381.172 355.726 C -380.798 355.726 -374.637 347.84 -374.637 347.84 L -368.596 352.773 L -361.947 339.87 L -356.029 339.87 L -351.761 334.158 L -355.218 330.341 L -355.583 324.545 L -361.869 323.682 L -356.079 321.96 L -361.869 318.509 L -354.352 318.261 L -358.666 313.208 L -351.641 316.783 L -351.026 310.373 L -348.069 316.411 L -346.095 316.287 L -341.909 312.837 L -343.997 318.875 L -339.559 318.261 L -339.559 313.77 L -338.504 313.204 L -338.078 296.816 L -335.307 292.946 L -335.371 292.133 L -340.422 292.013 L -340.422 287.45 L -339.189 285.845 L -335.491 285.601 L -335.125 284.267 L -339.189 283.753 L -339.189 280.053 L -337.837 277.911 L -337.713 276.111 L -336.234 274.388 L -338.346 269.951 L -338.346 266.744 L -329.821 277.911 L -329.821 282.52 L -331.301 284.267 L -331.673 285.356 L -330.19 285.356 L -328.71 287.328 L -328.71 292.257 L -330.929 293.488 L -330.947 299.182 L -333.777 299.182 L -333.777 304.924 L -329.211 325.728 L -329.211 333.994 L -331.821 336.17 L -331.821 345.309 L -334.034 350.046 L -331.821 362.278 L -331.821 367.065 L -334.336 367.065 L -334.764 369.357 L -334.438 379.251 L -336.398 379.251 L -336.474 390.153 L -334.438 397.959 L -334.438 420.796 L -330.19 420.711 L -330.19 426.761 L -324.216 426.691 L -325.541 433.995 L -330.586 433.964 L -324.883 444.625 C -324.883 444.625 -322.224 425.358 -300.302 413.406 C -298.292 412.309 -296.302 411.398 -294.337 410.575 C -284.349 398.287 -265.442 400.568 -265.442 400.568 L -265.442 390.73 L -261.48 391.945 C -260.305 387.755 -258.157 385.529 -256.253 384.336 L -256.253 315.516 L -231.587 315.516 L -231.587 366.246 L -229.895 366.246 L -229.895 387.535 L -228.932 388.498 L -222.278 388.498 L -222.278 192.339 L -190.999 191.951 L -190.999 349.926 C -187.912 350.34 -185.155 351.387 -182.891 352.564 L -182.891 208.945 L -159.914 185.969 L -132.307 208.585 L -132.656 331.976 C -128.518 331.47 -124.866 332.066 -121.767 333.195 L -121.767 100.485 L -106.328 100.301 L -106.061 97.111 L -118.109 97.204 L -121.767 95.51 L -121.767 92.853 L -118.834 90.459 L -105.799 90.193 L -103.669 0 L -101.413 90.213 L -87.707 90.213 L -84.777 92.321 L -85.043 95.51 L -88.236 97.111 L -101.413 97.111 L -101.413 99.666 L -83.673 99.666 L -83.673 323.368 L -77.123 317.756 L -66.497 329.714 L -66.497 344.326 L -63.175 344.326 L -63.175 378.864 L -59.852 378.864 L -59.852 394.354 L -52.739 394.354 L -52.739 313.77 L -45.23 313.77 L -45.23 289.074 L -30.81 289.074 L -30.81 313.77 L -28.934 313.77 L -28.934 335.98 L -6.42 335.98 L -6.42 339.65 C -3.359 339.61 -1.401 339.58 -1.401 339.58 L -1.401 340.819 L 0.569 340.819 L 0.569 324.487 L 4.669 324.487 L 4.669 316.793 L 33.131 316.793 L 33.131 354.506 L 43.525 354.506 L 43.525 384.844 L 48.697 384.844 L 48.697 379.345 L 57.495 379.345 L 57.495 375.723 L 61.637 375.723 L 61.637 370.55 L 66.812 370.55 L 66.812 384.844 L 70.334 384.844 L 70.334 358.272 L 77.641 313.77 L 84.952 358.272 L 84.952 383.517 L 87.465 384.146 L 87.465 304.223 L 125.534 304.223 L 125.534 320.349 L 130.987 320.349 L 130.987 352.647 L 132.671 352.647 L 135.43 339.58 L 138.977 352.647 L 148.585 352.647 L 148.585 322.935 L 155.832 322.935 L 155.832 329.145 L 176.534 329.145 L 176.534 324.487 L 186.362 324.487 L 186.362 331.214 L 193.613 331.214 L 193.613 326.038 L 201.371 326.038 L 201.371 352.961 C 205.176 353.115 209.431 353.199 210.486 352.893 C 209.897 354.951 210.728 369.277 210.728 369.277 L 216.465 369.277 L 216.465 386.838 L 221.118 386.838 L 221.118 358.939 L 226.429 348.973 L 231.746 360.929 L 231.746 380.86 L 235.682 380.86 L 235.682 307.552 L 263.035 307.552 L 263.035 319.312 L 266.066 319.312 L 266.066 344.515 L 275.9 344.515 L 275.9 308.96 L 293.343 308.96 L 293.343 280.376 L 315.523 280.376 L 315.523 294.473 L 336.97 294.473 L 336.97 350.302 L 339.016 350.302 L 339.016 373.221 L 341.026 375.231 L 341.026 199.993 L 345.092 199.993 L 345.092 171.162 L 349.156 171.162 L 349.156 158.966 L 353.224 158.966 L 353.224 154.158 L 357.658 154.158 L 357.658 147.505 L 361.354 148.246 L 361.354 144.922 L 363.572 144.552 C 363.572 144.552 363.778 116.454 363.572 111.285 C 363.346 105.492 369.424 104.937 369.424 104.937 L 369.424 90.213 L 371.268 90.213 L 371.268 104.813 C 378.385 105.079 378.729 110.545 378.729 110.545 L 378.729 147.505 L 384.272 147.505 L 384.272 153.421 L 388.705 153.421 L 388.705 159.333 L 393.143 159.705 L 393.143 170.051 L 396.472 170.423 L 396.472 199.622 L 398.687 199.622 L 398.687 346.595 L 402.106 349.323 L 402.106 352.304 C 402.308 352.3 402.45 352.296 402.45 352.296 L 402.45 360.714 L 407.255 360.714 L 407.255 277.911 L 429.907 277.911 L 429.907 366.927 L 430.88 366.927 L 441.511 356.296 L 441.511 293.438 L 441.511 284.121 L 448.237 284.121 L 448.237 277.911 L 465.947 277.911 L 465.947 236.1 L 481.654 236.1 L 481.654 322.405 L 496.322 322.405 L 496.322 249.489 L 515.371 249.489 L 515.371 360.714 L 520.174 360.714 L 520.174 353.986 L 527.988 354.362 L 527.988 344.989 L 528.454 344.989 L 528.454 338.979 L 535.703 338.979 L 535.703 333.804 L 538.025 333.804 L 538.025 284.494 L 564.283 284.494 L 564.283 329.662 L 569.432 329.662 L 569.432 284.494 L 592.995 284.494 L 592.995 321.9 L 600.393 321.9 L 600.393 337.247 L 603.049 335.692 L 606.371 339.58 L 606.371 345.652 L 609.688 346.32 L 609.688 379.483 L 614.905 379.483 L 614.905 274.394 L 617.147 272.153 L 617.147 260.606 L 621.648 256.106 L 621.648 229.658 L 627.964 223.586 L 627.964 215.33 L 628.935 214.114 L 628.935 207.316 L 630.636 205.858 L 630.636 197.118 L 633.065 196.635 L 633.065 187.893 L 634.034 187.162 L 634.034 181.58 L 635.493 180.363 L 635.493 175.266 L 637.433 171.138 L 637.493 131.77 L 637.493 132.5 L 638.404 171.138 L 639.621 171.138 L 639.621 178.421 L 643.141 185.951 L 643.141 192.385 L 646.904 196.147 L 646.904 204.403 L 649.395 204.403 L 649.395 213.324 L 651.153 215.089 L 651.153 222.252 L 652.49 223.586 L 652.49 231.111 L 653.925 231.111 L 653.925 256.914 L 657.525 256.914 L 657.525 263.515 L 661.723 263.515 L 661.723 374.882 L 666.814 374.882 L 666.814 368.901 L 669.745 368.901 L 669.745 313.77 L 717.272 313.77 L 717.272 383.617 C 720.985 383.845 724.603 383.821 724.603 382.852 L 724.603 393.323 L 726.673 395.393 L 726.673 360.714 L 740.13 360.714 L 740.13 396.798 L 746.855 396.798 L 746.855 351.92 L 778.428 351.92 L 778.428 413.272 L 786.448 413.272 L 786.448 381.671 L 817.596 381.671 L 817.596 404.023 L 817.596 464 L -395.954 463.225 C -396.189 439.302 -377.925 433.208 -377.925 433.208 Z " fill="rgb(49,49,49)"/></svg>