<?xml version="1.0" standalone="no"?><!-- Generator: Gravit.io --><svg xmlns="http://www.w3.org/2000/svg" xmlns:xlink="http://www.w3.org/1999/xlink" style="isolation:isolate" viewBox="0 0 300 128" width="300" height="128"><defs><clipPath id="_clipPath_VTl6V8XOtOuxwAjm379qxb2tvdyXW2eU"><rect width="300" height="128"/></clipPath></defs><g clip-path="url(#_clipPath_VTl6V8XOtOuxwAjm379qxb2tvdyXW2eU)"><g><g><g><g><clipPath id="_clipPath_MM1zrev9NXQSJOXDKHZ5cfn99AJjMFxS"><path d=" M 94.237 41.569 L 294.498 41.569 L 294.498 109.546 L 94.237 109.546 L 94.237 41.569 Z " fill="rgb(255,255,255)"/></clipPath><g clip-path="url(#_clipPath_MM1zrev9NXQSJOXDKHZ5cfn99AJjMFxS)"><g style="opacity:0.19999701;"><g style="opacity:0.19999701;"><g opacity="0.19999701"><path d=" M 292.825 66.822 C 293.873 66.396 293.956 66.32 293.569 65.235 C 291.353 59.033 283.019 55.683 275.921 58.589 C 270.32 60.881 266.267 66.691 266.267 73.189 C 266.267 81.945 272.707 89.733 281.456 89.733 C 285.467 89.733 288.318 89.188 290.857 87.608 C 291.401 87.111 294.469 84.704 294.498 84.188 C 294.504 84.069 294.066 84.442 293.399 84.805 C 291.422 85.825 288.458 86.216 286.134 86.258 C 281.432 86.343 277.676 83.197 275.226 79.465 C 273.65 77.061 272.629 74.314 272.378 71.365 C 271.989 66.83 273.118 61.616 278.336 60.335 C 281.808 59.483 285.097 61.392 286.375 64.674 C 286.954 66.163 286.605 66.937 285.201 67.505 L 272.647 72.652 L 276.927 72.921 C 282.024 70.845 287.728 68.898 292.825 66.822 Z " fill-rule="evenodd" fill="rgb(48,48,48)"/></g></g><g style="opacity:0.19999701;"><g opacity="0.19999701"><path d=" M 254.177 41.569 L 263.548 41.569 C 262.245 42.399 261.806 42.742 261.246 43.613 C 260.844 44.238 260.741 45.422 260.668 46.491 C 260.122 58.771 260.456 71.146 260.375 83.429 C 260.428 86.776 261.768 86.383 266.204 86.256 C 265.535 86.813 264.45 87.911 263.61 88.384 C 259.609 88.384 255.788 88.301 251.787 88.301 C 253.294 86.773 254.067 85.788 253.963 81.968 C 254.043 69.132 253.526 56.814 254.323 44.454 C 252.447 44.507 250.743 44.48 248.866 44.533 C 250.637 43.638 252.314 42.374 254.177 41.569 Z " fill-rule="evenodd" fill="rgb(48,48,48)"/></g></g><g style="opacity:0.19999701;"><g opacity="0.19999701"><path d=" M 240.601 70.19 C 241.315 74.441 240.215 78.472 236.299 79.535 C 232.29 80.623 227.857 77.563 226.43 72.083 C 224.868 66.074 226.485 62.258 230.261 61.108 C 234.732 59.742 239.512 63.701 240.601 70.19 Z  M 250.689 58.514 L 246.681 61.06 L 242.119 61.06 C 244.046 62.381 245.523 64.283 246.336 66.403 C 247.203 68.662 247.324 71.164 246.443 73.47 C 245.612 75.643 243.929 77.514 241.454 78.936 C 240.047 79.745 239.336 80.769 239.259 81.753 C 239.029 84.622 242.601 86.708 244.666 88.224 C 249.185 91.544 250.95 96.992 247.959 102.254 C 245.102 107.279 238.3 109.521 231.073 109.546 C 222.098 109.507 216.436 105.471 216.137 99.976 C 215.753 92.878 223.176 89.497 229.882 88.728 C 231.76 88.511 233.438 88.546 235.016 88.657 C 232.642 87.122 231.756 83.998 232.967 81.911 C 233.283 81.367 233.082 81.554 232.485 81.643 C 226.998 82.456 221.347 78.942 220.025 73.63 C 219.355 70.936 219.771 68.119 220.817 65.914 C 223.089 61.127 228.14 58.466 233.744 58.466 C 239.575 58.466 244.973 58.469 250.689 58.514 Z  M 237.236 90.486 C 237.909 90.97 238.611 91.442 239.335 91.89 C 243.272 94.338 244.528 97.329 244.207 100.09 C 243.821 103.42 240.567 106.044 234.994 106.376 C 229.041 106.731 221.031 104.418 222.514 96.738 C 223.305 92.644 228.838 90.532 233.413 90.382 C 234.679 90.341 235.968 90.445 237.236 90.486 Z " fill-rule="evenodd" fill="rgb(48,48,48)"/></g></g><g style="opacity:0.19999701;"><g opacity="0.19999701"><path d=" M 209.876 73.916 C 210.494 79.941 208.433 85.535 202.925 86.785 C 197.29 88.066 191.316 83.477 189.823 75.681 C 188.186 67.13 190.891 61.498 196.211 60.113 C 202.513 58.473 208.937 64.717 209.876 73.916 Z  M 199.714 57.625 C 210.468 57.625 216.079 64.641 216.58 72.862 C 217.079 81.052 210.198 88.38 201.777 89.257 C 191.651 90.311 182.809 83.464 182.809 73.48 C 182.809 64.748 190.402 57.625 199.714 57.625 Z " fill-rule="evenodd" fill="rgb(48,48,48)"/></g></g><g style="opacity:0.19999701;"><g opacity="0.19999701"><path d=" M 173.132 73.916 C 173.755 79.941 171.672 85.535 166.099 86.785 C 160.397 88.066 154.352 83.477 152.842 75.681 C 151.185 67.13 153.923 61.498 159.306 60.113 C 165.683 58.473 172.181 64.717 173.132 73.916 Z  M 162.848 57.625 C 173.731 57.625 179.408 64.641 179.916 72.862 C 180.42 81.052 173.458 88.38 164.938 89.257 C 154.692 90.311 145.743 83.464 145.743 73.48 C 145.743 64.748 153.428 57.625 162.848 57.625 Z " fill-rule="evenodd" fill="rgb(48,48,48)"/></g></g><g style="opacity:0.19999701;"><g opacity="0.19999701"><path d=" M 135.807 53.232 L 140.699 48.337 C 132.395 41.592 118.154 40.706 108.717 45.388 C 100.509 49.462 94.541 57.55 94.249 66.584 C 93.941 76.092 99.573 83.613 105.287 87.395 C 114.719 93.638 131.072 92.248 140.923 87.368 L 140.921 86.461 L 140.922 86.461 L 140.922 76.497 L 143.216 73.861 L 128.864 73.861 L 123.549 76.798 L 133.872 76.497 L 133.872 85.28 C 133.872 86.526 133.888 86.726 131.796 87.39 C 128.851 88.149 125.525 88.298 122.487 88.049 C 112.181 87.205 104.324 79.213 102.462 69.243 C 100.697 59.784 105.242 50.836 112.927 47.144 C 116.68 45.342 121.182 44.495 126.063 46.028 C 129.123 46.989 131.901 48.721 134.321 51.107 L 132.636 54.116 L 135.807 53.232 Z " fill-rule="evenodd" fill="rgb(48,48,48)"/></g></g></g></g></g></g><g><g><clipPath id="_clipPath_4l4PSO4LQfJgGimiQhHmBc1O4Zs2Sr1w"><path d=" M 95.065 19.243 L 208.045 19.243 L 208.045 37.228 L 95.065 37.228 L 95.065 19.243 Z " fill="rgb(255,255,255)"/></clipPath><g clip-path="url(#_clipPath_4l4PSO4LQfJgGimiQhHmBc1O4Zs2Sr1w)"><g style="opacity:0.19999701;"><g style="opacity:0.19999701;"><g opacity="0.19999701"><path d=" M 95.498 31.136 C 96.267 31.6 97.39 31.987 98.572 31.987 C 100.327 31.987 101.351 31.078 101.351 29.763 C 101.351 28.544 100.641 27.848 98.848 27.171 C 96.68 26.418 95.341 25.315 95.341 23.478 C 95.341 21.448 97.055 19.939 99.636 19.939 C 100.996 19.939 101.981 20.249 102.573 20.577 L 102.1 21.95 C 101.666 21.718 100.779 21.332 99.577 21.332 C 97.764 21.332 97.075 22.395 97.075 23.285 C 97.075 24.503 97.883 25.102 99.715 25.799 C 101.962 26.65 103.105 27.713 103.105 29.627 C 103.105 31.639 101.587 33.38 98.454 33.38 C 97.173 33.38 95.774 33.012 95.064 32.548 L 95.498 31.136 Z " fill="rgb(48,48,48)"/></g></g><g style="opacity:0.19999701;"><g opacity="0.19999701"><path d=" M 110.474 28.409 C 108.582 28.371 106.434 28.699 106.434 30.517 C 106.434 31.619 107.182 32.142 108.07 32.142 C 109.311 32.142 110.099 31.368 110.375 30.575 C 110.434 30.401 110.474 30.208 110.474 30.034 L 110.474 28.409 Z  M 110.73 33.186 L 110.592 32.006 L 110.532 32.006 C 110 32.741 108.977 33.399 107.616 33.399 C 105.685 33.399 104.7 32.064 104.7 30.711 C 104.7 28.448 106.749 27.21 110.434 27.229 L 110.434 27.036 C 110.434 26.263 110.217 24.87 108.267 24.87 C 107.379 24.87 106.454 25.141 105.783 25.566 L 105.39 24.445 C 106.178 23.943 107.32 23.613 108.523 23.613 C 111.439 23.613 112.149 25.566 112.149 27.442 L 112.149 30.942 C 112.149 31.755 112.188 32.548 112.306 33.186 L 110.73 33.186 Z " fill="rgb(48,48,48)"/></g></g><g style="opacity:0.19999701;"><g opacity="0.19999701"><path d=" M 115.122 33.186 L 115.122 25.122 L 113.782 25.122 L 113.782 23.826 L 115.122 23.826 L 115.122 23.381 C 115.122 22.066 115.418 20.867 116.226 20.113 C 116.876 19.494 117.743 19.243 118.551 19.243 C 119.162 19.243 119.693 19.378 120.028 19.513 L 119.792 20.828 C 119.536 20.712 119.182 20.615 118.689 20.615 C 117.212 20.615 116.837 21.892 116.837 23.323 L 116.837 23.826 L 119.143 23.826 L 119.143 25.122 L 116.837 25.122 L 116.837 33.186 L 115.122 33.186 Z " fill="rgb(48,48,48)"/></g></g><g style="opacity:0.19999701;"><g opacity="0.19999701"><path d=" M 126.493 27.597 C 126.512 26.514 126.04 24.831 124.088 24.831 C 122.334 24.831 121.566 26.417 121.428 27.597 L 126.493 27.597 Z  M 121.408 28.815 C 121.448 31.116 122.945 32.064 124.679 32.064 C 125.921 32.064 126.67 31.852 127.32 31.581 L 127.616 32.799 C 127.005 33.07 125.96 33.379 124.442 33.379 C 121.507 33.379 119.753 31.484 119.753 28.66 C 119.753 25.837 121.448 23.613 124.226 23.613 C 127.34 23.613 128.167 26.301 128.167 28.023 C 128.167 28.37 128.128 28.641 128.109 28.815 L 121.408 28.815 Z " fill="rgb(48,48,48)"/></g></g><g style="opacity:0.19999701;"><g opacity="0.19999701"><path d=" M 136.264 31.909 C 136.599 31.968 137.092 31.987 137.704 31.987 C 139.477 31.987 141.112 31.349 141.112 29.453 C 141.112 27.674 139.556 26.939 137.684 26.939 L 136.264 26.939 L 136.264 31.909 Z  M 136.264 25.663 L 137.821 25.663 C 139.634 25.663 140.698 24.735 140.698 23.478 C 140.698 21.95 139.516 21.351 137.782 21.351 C 136.994 21.351 136.541 21.408 136.264 21.467 L 136.264 25.663 Z  M 134.551 20.325 C 135.299 20.171 136.482 20.054 137.684 20.054 C 139.397 20.054 140.501 20.345 141.329 21.003 C 142.019 21.505 142.433 22.279 142.433 23.304 C 142.433 24.561 141.585 25.663 140.186 26.166 L 140.186 26.205 C 141.447 26.514 142.926 27.539 142.926 29.473 C 142.926 30.595 142.472 31.445 141.803 32.084 C 140.876 32.915 139.378 33.302 137.211 33.302 C 136.028 33.302 135.122 33.225 134.551 33.147 L 134.551 20.325 Z " fill="rgb(48,48,48)"/></g></g><g style="opacity:0.19999701;"><g opacity="0.19999701"><path d=" M 145.17 26.746 C 145.17 25.644 145.151 24.696 145.091 23.826 L 146.609 23.826 L 146.668 25.663 L 146.747 25.663 C 147.18 24.406 148.224 23.613 149.387 23.613 C 149.584 23.613 149.722 23.633 149.88 23.671 L 149.88 25.276 C 149.703 25.238 149.526 25.219 149.289 25.219 C 148.067 25.219 147.2 26.127 146.963 27.404 C 146.924 27.635 146.885 27.906 146.885 28.196 L 146.885 33.186 L 145.17 33.186 L 145.17 26.746 Z " fill="rgb(48,48,48)"/></g></g><g style="opacity:0.19999701;"><g opacity="0.19999701"><path d=" M 152.481 28.525 C 152.481 30.575 153.683 32.122 155.377 32.122 C 157.033 32.122 158.274 30.594 158.274 28.487 C 158.274 26.901 157.466 24.889 155.416 24.889 C 153.367 24.889 152.481 26.746 152.481 28.525 Z  M 160.048 28.428 C 160.048 31.89 157.604 33.399 155.299 33.399 C 152.717 33.399 150.727 31.543 150.727 28.584 C 150.727 25.451 152.816 23.613 155.456 23.613 C 158.195 23.613 160.048 25.566 160.048 28.428 Z " fill="rgb(48,48,48)"/></g></g><g style="opacity:0.19999701;"><g opacity="0.19999701"><path d=" M 162.786 23.826 L 164.046 28.583 C 164.323 29.628 164.579 30.595 164.756 31.561 L 164.815 31.561 C 165.033 30.614 165.348 29.608 165.663 28.603 L 167.22 23.826 L 168.678 23.826 L 170.156 28.505 C 170.511 29.628 170.786 30.614 171.003 31.561 L 171.063 31.561 C 171.22 30.614 171.476 29.628 171.792 28.525 L 173.151 23.826 L 174.865 23.826 L 171.792 33.186 L 170.215 33.186 L 168.757 28.719 C 168.422 27.675 168.146 26.746 167.909 25.644 L 167.87 25.644 C 167.633 26.765 167.338 27.732 167.003 28.738 L 165.466 33.186 L 163.89 33.186 L 161.012 23.826 L 162.786 23.826 Z " fill="rgb(48,48,48)"/></g></g><g style="opacity:0.19999701;"><g opacity="0.19999701"><path d=" M 176.243 31.445 C 176.756 31.774 177.662 32.122 178.529 32.122 C 179.79 32.122 180.381 31.504 180.381 30.73 C 180.381 29.918 179.889 29.473 178.608 29.009 C 176.894 28.409 176.086 27.481 176.086 26.359 C 176.086 24.851 177.327 23.613 179.376 23.613 C 180.342 23.613 181.189 23.884 181.721 24.193 L 181.288 25.431 C 180.913 25.199 180.224 24.89 179.337 24.89 C 178.312 24.89 177.74 25.469 177.74 26.166 C 177.74 26.939 178.312 27.288 179.554 27.752 C 181.209 28.371 182.056 29.182 182.056 30.575 C 182.056 32.218 180.755 33.379 178.49 33.379 C 177.445 33.379 176.479 33.128 175.81 32.741 L 176.243 31.445 Z " fill="rgb(48,48,48)"/></g></g><g opacity="0.19999701"><path d=" M 184.282 23.826 L 186.016 23.826 L 186.016 33.185 L 184.282 33.185 L 184.282 23.826 Z  M 186.214 21.196 C 186.233 21.777 185.8 22.24 185.11 22.24 C 184.5 22.24 184.066 21.777 184.066 21.196 C 184.066 20.596 184.519 20.132 185.149 20.132 C 185.8 20.132 186.214 20.596 186.214 21.196" fill="rgb(48,48,48)"/></g><g style="opacity:0.19999701;"><g opacity="0.19999701"><path d=" M 188.893 26.359 C 188.893 25.392 188.873 24.599 188.814 23.826 L 190.35 23.826 L 190.449 25.373 L 190.488 25.373 C 190.961 24.484 192.065 23.613 193.641 23.613 C 194.963 23.613 197.011 24.387 197.011 27.597 L 197.011 33.186 L 195.277 33.186 L 195.277 27.79 C 195.277 26.282 194.706 25.025 193.07 25.025 C 191.927 25.025 191.041 25.818 190.745 26.765 C 190.666 26.978 190.626 27.268 190.626 27.558 L 190.626 33.186 L 188.893 33.186 L 188.893 26.359 Z " fill="rgb(48,48,48)"/></g></g><g style="opacity:0.19999701;"><g opacity="0.19999701"><path d=" M 206.252 27.52 C 206.252 27.23 206.233 26.978 206.153 26.747 C 205.838 25.76 204.991 24.947 203.73 24.947 C 202.074 24.947 200.892 26.321 200.892 28.487 C 200.892 30.324 201.838 31.852 203.71 31.852 C 204.774 31.852 205.74 31.194 206.114 30.111 C 206.213 29.821 206.252 29.492 206.252 29.203 L 206.252 27.52 Z  M 208.045 23.826 C 208.006 24.503 207.967 25.257 207.967 26.398 L 207.967 31.833 C 207.967 33.979 207.533 35.294 206.606 36.106 C 205.68 36.958 204.341 37.228 203.139 37.228 C 201.996 37.228 200.735 36.958 199.966 36.454 L 200.4 35.158 C 201.03 35.546 202.016 35.893 203.197 35.893 C 204.971 35.893 206.272 34.985 206.272 32.626 L 206.272 31.581 L 206.233 31.581 C 205.7 32.451 204.676 33.147 203.197 33.147 C 200.834 33.147 199.139 31.175 199.139 28.584 C 199.139 25.411 201.247 23.613 203.434 23.613 C 205.089 23.613 205.996 24.464 206.41 25.237 L 206.449 25.237 L 206.529 23.826 L 208.045 23.826 Z " fill="rgb(48,48,48)"/></g></g></g></g></g></g><g><g><clipPath id="_clipPath_8BFGrJFhlS1NRMvXdhg8vrdKASco8SKP"><path d=" M 5.502 21.249 L 86.092 21.249 L 86.092 109.425 L 5.502 109.425 L 5.502 21.249 Z " fill="rgb(255,255,255)"/></clipPath><g clip-path="url(#_clipPath_8BFGrJFhlS1NRMvXdhg8vrdKASco8SKP)"><g style="opacity:0.30000299;"><g style="opacity:0.30000299;"><g opacity="0.30000299"><path d=" M 86.069 39.451 L 86.069 39.254 C 86.083 39.133 86.092 39.011 86.092 38.886 C 86.092 38.728 86.077 38.576 86.057 38.437 C 85.858 36.428 84.38 34.789 82.38 34.358 L 81.816 34.281 C 76.673 33.668 59.325 31.093 50.98 23.659 C 50.619 23.216 50.191 22.819 49.706 22.476 C 48.567 21.673 47.214 21.249 45.794 21.249 C 44.367 21.249 43.012 21.676 41.872 22.484 C 41.395 22.822 40.974 23.213 40.617 23.65 C 32.196 31.164 14.693 33.71 9.504 34.313 L 9.273 34.347 C 7.227 34.761 5.695 36.472 5.527 38.52 C 5.512 38.642 5.503 38.765 5.503 38.891 C 5.503 38.989 5.508 39.085 5.519 39.182 L 5.518 39.422 C 5.518 39.588 5.517 39.753 5.519 39.916 C 5.513 39.996 5.509 40.077 5.509 40.159 C 5.509 40.322 5.517 40.482 5.531 40.642 C 6.002 73.616 16.661 90.51 25.524 98.877 C 35.355 108.156 45.113 109.348 45.523 109.394 L 45.794 109.425 L 46.063 109.394 C 46.473 109.348 56.226 108.157 66.054 98.884 C 74.913 90.524 85.571 73.647 86.054 40.704 C 86.071 40.525 86.081 40.344 86.081 40.16 C 86.081 40.065 86.077 39.971 86.069 39.857 C 86.069 39.723 86.069 39.586 86.069 39.451" fill="rgb(48,48,48)"/></g></g></g></g></g></g><g><path d=" M 10.135 34.07 C 10.145 34.069 10.155 34.068 10.168 34.066 C 10.156 34.068 10.145 34.068 10.135 34.07 Z " fill="rgb(0,0,0)"/></g><g><path d=" M 84.184 39.028 C 84.191 38.952 84.207 38.879 84.207 38.802 C 84.207 38.725 84.191 38.652 84.184 38.578 C 84.084 37.573 83.341 36.757 82.357 36.545 C 82.248 36.532 82.133 36.519 82.014 36.505 C 75.901 35.775 58.409 33.059 49.711 25.152 C 49.463 24.819 49.156 24.527 48.808 24.28 C 48.108 23.786 47.232 23.49 46.278 23.49 C 45.322 23.49 44.443 23.789 43.743 24.285 C 43.4 24.528 43.099 24.816 42.854 25.143 C 34.026 33.177 16.121 35.857 10.268 36.537 C 10.256 36.538 10.247 36.54 10.236 36.541 C 9.212 36.747 8.442 37.607 8.372 38.654 C 8.368 38.706 8.355 38.755 8.355 38.807 C 8.355 38.86 8.368 38.91 8.372 38.962 C 8.373 39.272 8.369 39.591 8.372 39.898 C 8.37 39.957 8.363 40.015 8.363 40.076 C 8.363 40.197 8.371 40.318 8.383 40.437 C 9.24 102.832 46.277 107.001 46.277 107.001 C 46.277 107.001 83.296 102.836 84.171 40.485 C 84.186 40.35 84.196 40.214 84.196 40.076 C 84.196 39.998 84.189 39.922 84.183 39.845 C 84.185 39.577 84.182 39.298 84.184 39.028 Z " fill="rgb(61,197,0)"/></g></g><g><g><path d=" M 10.631 38.22 C 10.632 38.253 10.636 38.284 10.639 38.316 L 10.651 38.516 C 11.082 69.945 20.972 85.794 29.192 93.552 C 37 100.922 44.637 102.508 46.17 102.76 C 47.713 102.497 55.568 100.833 63.397 93.327 C 75.026 82.178 81.354 63.241 81.701 38.563 L 81.716 38.331 C 81.721 38.284 81.726 38.235 81.726 38.187 L 81.712 38.02 L 81.713 37.93 C 81.714 37.786 81.713 37.638 81.713 37.49 L 81.723 36.935 L 81.626 36.924 C 74.54 36.078 57.077 33.219 48 24.969 L 47.832 24.816 L 47.697 24.635 C 47.601 24.506 47.475 24.386 47.324 24.279 C 47.095 24.117 46.711 23.925 46.178 23.925 C 45.642 23.925 45.257 24.119 45.028 24.281 C 44.879 24.386 44.757 24.503 44.662 24.629 L 44.529 24.808 L 44.363 24.958 C 35.287 33.221 17.901 36.076 10.636 36.934 L 10.64 37.064 L 10.64 37.463 C 10.64 37.637 10.639 37.812 10.641 37.983 L 10.641 38.052 L 10.631 38.22 Z  M 46.176 107.452 L 45.906 107.421 C 45.496 107.376 35.739 106.183 25.908 96.905 C 17.044 88.537 6.385 71.643 5.913 38.668 C 5.9 38.509 5.892 38.349 5.892 38.186 C 5.892 38.104 5.896 38.023 5.902 37.942 C 5.9 37.779 5.901 37.613 5.901 37.449 L 5.902 37.208 C 5.891 37.111 5.885 37.016 5.885 36.917 C 5.885 36.791 5.895 36.668 5.911 36.546 C 6.079 34.498 7.61 32.787 9.657 32.374 L 9.888 32.339 C 15.076 31.735 32.579 29.19 41 21.675 C 41.357 21.24 41.777 20.848 42.254 20.511 C 43.394 19.702 44.751 19.275 46.178 19.275 C 47.598 19.275 48.95 19.699 50.089 20.503 C 50.575 20.846 51.003 21.243 51.363 21.686 C 59.708 29.119 77.056 31.693 82.199 32.308 L 82.763 32.385 C 84.764 32.816 86.242 34.454 86.441 36.463 C 86.461 36.602 86.475 36.755 86.475 36.912 C 86.475 37.037 86.466 37.159 86.452 37.281 L 86.452 37.477 C 86.452 37.613 86.453 37.749 86.452 37.883 C 86.46 37.997 86.464 38.092 86.464 38.187 C 86.464 38.37 86.454 38.551 86.437 38.731 C 85.954 71.674 75.297 88.551 66.437 96.911 C 56.609 106.185 46.856 107.376 46.446 107.421 L 46.176 107.452 Z " fill="rgb(219,219,219)"/></g><g><g><clipPath id="_clipPath_qjkm1xzjvhZEwzjJuL5vYHxk4Cz82S6X"><path d=" M 24.079 46.834 L 72.923 46.834 L 72.923 83.656 L 24.079 83.656 L 24.079 46.834 Z " fill="rgb(255,255,255)"/></clipPath><g clip-path="url(#_clipPath_qjkm1xzjvhZEwzjJuL5vYHxk4Cz82S6X)"><g><g><path d=" M 69.388 46.834 C 68.531 46.834 67.746 47.134 67.134 47.633 L 66.671 48.087 L 39.003 75.24 L 30.392 66.788 C 30.224 66.581 30.033 66.392 29.82 66.227 C 29.216 65.756 28.452 65.472 27.619 65.472 C 26.894 65.472 26.22 65.686 25.659 66.054 C 25.268 66.31 24.933 66.638 24.673 67.021 C 24.298 67.573 24.079 68.234 24.079 68.947 C 24.079 69.771 24.373 70.527 24.862 71.123 L 25.403 71.654 L 34.031 80.12 L 34.023 80.128 L 36.331 82.395 L 36.858 82.912 C 37.447 83.376 38.192 83.656 39.005 83.656 C 39.81 83.656 40.549 83.383 41.134 82.926 C 41.343 82.765 41.532 82.579 41.697 82.375 L 43.986 80.128 L 43.977 80.12 L 71.628 52.985 L 72.123 52.498 C 72.623 51.9 72.923 51.136 72.923 50.302 C 72.923 48.387 71.341 46.834 69.388 46.834 Z " fill="rgb(188,190,192)"/></g></g></g></g></g><g><path d=" M 69.388 44.953 C 68.531 44.953 67.746 45.253 67.134 45.752 L 66.671 46.206 L 39.003 73.357 L 30.392 64.906 C 30.224 64.699 30.033 64.509 29.82 64.345 C 29.216 63.873 28.452 63.59 27.619 63.59 C 26.894 63.59 26.22 63.805 25.659 64.172 C 25.268 64.428 24.933 64.756 24.673 65.14 C 24.298 65.691 24.079 66.353 24.079 67.065 C 24.079 67.889 24.373 68.645 24.862 69.24 L 25.403 69.772 L 34.031 78.239 L 34.023 78.246 L 36.331 80.513 L 36.858 81.03 C 37.447 81.494 38.192 81.775 39.005 81.775 C 39.81 81.775 40.549 81.5 41.134 81.045 C 41.343 80.883 41.532 80.697 41.697 80.493 L 43.986 78.246 L 43.977 78.239 L 71.628 51.104 L 72.123 50.616 C 72.623 50.019 72.923 49.254 72.923 48.421 C 72.923 46.505 71.341 44.953 69.388 44.953 Z " fill="rgb(230,231,232)"/></g><g><path d=" M 95.498 30.347 C 96.267 30.812 97.39 31.199 98.572 31.199 C 100.327 31.199 101.351 30.29 101.351 28.974 C 101.351 27.756 100.641 27.06 98.848 26.383 C 96.68 25.629 95.341 24.527 95.341 22.689 C 95.341 20.659 97.055 19.15 99.636 19.15 C 100.996 19.15 101.981 19.46 102.573 19.789 L 102.1 21.162 C 101.666 20.929 100.779 20.543 99.577 20.543 C 97.764 20.543 97.075 21.606 97.075 22.496 C 97.075 23.714 97.883 24.314 99.715 25.011 C 101.962 25.861 103.105 26.924 103.105 28.839 C 103.105 30.85 101.587 32.591 98.454 32.591 C 97.173 32.591 95.774 32.223 95.064 31.76 L 95.498 30.347 Z " fill="rgb(255,255,255)"/></g><g><path d=" M 110.474 27.621 C 108.582 27.582 106.434 27.911 106.434 29.728 C 106.434 30.831 107.182 31.353 108.07 31.353 C 109.311 31.353 110.099 30.579 110.375 29.787 C 110.434 29.612 110.474 29.419 110.474 29.245 L 110.474 27.621 Z  M 110.73 32.398 L 110.592 31.218 L 110.532 31.218 C 110 31.952 108.977 32.611 107.616 32.611 C 105.685 32.611 104.7 31.275 104.7 29.922 C 104.7 27.659 106.749 26.422 110.434 26.441 L 110.434 26.248 C 110.434 25.474 110.217 24.082 108.267 24.082 C 107.379 24.082 106.454 24.353 105.783 24.778 L 105.39 23.656 C 106.178 23.154 107.32 22.824 108.523 22.824 C 111.439 22.824 112.149 24.778 112.149 26.653 L 112.149 30.154 C 112.149 30.966 112.188 31.759 112.306 32.398 L 110.73 32.398 Z " fill="rgb(255,255,255)"/></g><g><path d=" M 115.122 32.397 L 115.122 24.333 L 113.782 24.333 L 113.782 23.038 L 115.122 23.038 L 115.122 22.592 C 115.122 21.278 115.418 20.079 116.226 19.325 C 116.876 18.705 117.743 18.454 118.551 18.454 C 119.162 18.454 119.693 18.589 120.028 18.725 L 119.792 20.039 C 119.536 19.924 119.182 19.827 118.689 19.827 C 117.212 19.827 116.837 21.103 116.837 22.535 L 116.837 23.038 L 119.143 23.038 L 119.143 24.333 L 116.837 24.333 L 116.837 32.397 L 115.122 32.397 Z " fill="rgb(255,255,255)"/></g><g><path d=" M 126.493 26.809 C 126.512 25.726 126.04 24.043 124.088 24.043 C 122.334 24.043 121.566 25.629 121.428 26.809 L 126.493 26.809 Z  M 121.408 28.026 C 121.448 30.328 122.945 31.275 124.679 31.275 C 125.921 31.275 126.67 31.063 127.32 30.792 L 127.616 32.011 C 127.005 32.282 125.96 32.591 124.442 32.591 C 121.507 32.591 119.753 30.696 119.753 27.872 C 119.753 25.049 121.448 22.824 124.226 22.824 C 127.34 22.824 128.167 25.513 128.167 27.234 C 128.167 27.582 128.128 27.853 128.109 28.026 L 121.408 28.026 Z " fill="rgb(255,255,255)"/></g><g><path d=" M 136.264 31.121 C 136.599 31.179 137.092 31.199 137.704 31.199 C 139.477 31.199 141.112 30.56 141.112 28.665 C 141.112 26.886 139.556 26.151 137.684 26.151 L 136.264 26.151 L 136.264 31.121 Z  M 136.264 24.874 L 137.821 24.874 C 139.634 24.874 140.698 23.946 140.698 22.69 C 140.698 21.161 139.516 20.562 137.782 20.562 C 136.994 20.562 136.541 20.62 136.264 20.678 L 136.264 24.874 Z  M 134.551 19.537 C 135.299 19.382 136.482 19.266 137.684 19.266 C 139.397 19.266 140.501 19.557 141.329 20.214 C 142.019 20.717 142.433 21.49 142.433 22.515 C 142.433 23.773 141.585 24.874 140.186 25.377 L 140.186 25.416 C 141.447 25.726 142.926 26.75 142.926 28.685 C 142.926 29.806 142.472 30.657 141.803 31.295 C 140.876 32.127 139.378 32.514 137.211 32.514 C 136.028 32.514 135.122 32.436 134.551 32.358 L 134.551 19.537 Z " fill="rgb(255,255,255)"/></g><g><path d=" M 145.17 25.958 C 145.17 24.856 145.151 23.908 145.091 23.037 L 146.609 23.037 L 146.668 24.875 L 146.747 24.875 C 147.18 23.617 148.224 22.825 149.387 22.825 C 149.584 22.825 149.722 22.844 149.88 22.883 L 149.88 24.488 C 149.703 24.449 149.526 24.43 149.289 24.43 C 148.067 24.43 147.2 25.339 146.963 26.615 C 146.924 26.847 146.885 27.118 146.885 27.408 L 146.885 32.397 L 145.17 32.397 L 145.17 25.958 Z " fill="rgb(255,255,255)"/></g><g><path d=" M 152.481 27.737 C 152.481 29.787 153.683 31.333 155.377 31.333 C 157.033 31.333 158.274 29.806 158.274 27.698 C 158.274 26.112 157.466 24.101 155.416 24.101 C 153.367 24.101 152.481 25.958 152.481 27.737 Z  M 160.048 27.64 C 160.048 31.102 157.604 32.61 155.299 32.61 C 152.717 32.61 150.727 30.754 150.727 27.795 C 150.727 24.662 152.816 22.825 155.456 22.825 C 158.195 22.825 160.048 24.778 160.048 27.64 Z " fill="rgb(255,255,255)"/></g><g><path d=" M 162.786 23.037 L 164.046 27.795 C 164.323 28.839 164.579 29.806 164.756 30.773 L 164.815 30.773 C 165.033 29.825 165.348 28.819 165.663 27.814 L 167.22 23.037 L 168.678 23.037 L 170.156 27.717 C 170.511 28.839 170.786 29.825 171.003 30.773 L 171.063 30.773 C 171.22 29.825 171.476 28.839 171.792 27.736 L 173.151 23.037 L 174.865 23.037 L 171.792 32.397 L 170.215 32.397 L 168.757 27.93 C 168.422 26.886 168.146 25.958 167.909 24.856 L 167.87 24.856 C 167.633 25.976 167.338 26.944 167.003 27.949 L 165.466 32.397 L 163.89 32.397 L 161.012 23.037 L 162.786 23.037 Z " fill="rgb(255,255,255)"/></g><g><path d=" M 176.243 30.657 C 176.756 30.985 177.662 31.334 178.529 31.334 C 179.79 31.334 180.381 30.715 180.381 29.941 C 180.381 29.129 179.889 28.685 178.608 28.22 C 176.894 27.621 176.086 26.692 176.086 25.571 C 176.086 24.062 177.327 22.824 179.376 22.824 C 180.342 22.824 181.189 23.096 181.721 23.405 L 181.288 24.643 C 180.913 24.41 180.224 24.101 179.337 24.101 C 178.312 24.101 177.74 24.681 177.74 25.377 C 177.74 26.151 178.312 26.499 179.554 26.963 C 181.209 27.582 182.056 28.394 182.056 29.787 C 182.056 31.43 180.755 32.591 178.49 32.591 C 177.445 32.591 176.479 32.339 175.81 31.952 L 176.243 30.657 Z " fill="rgb(255,255,255)"/></g><path d=" M 184.282 23.038 L 186.016 23.038 L 186.016 32.397 L 184.282 32.397 L 184.282 23.038 Z  M 186.214 20.407 C 186.233 20.988 185.8 21.452 185.11 21.452 C 184.5 21.452 184.066 20.988 184.066 20.407 C 184.066 19.808 184.519 19.343 185.149 19.343 C 185.8 19.343 186.214 19.808 186.214 20.407" fill="rgb(255,255,255)"/><g><path d=" M 188.893 25.571 C 188.893 24.604 188.873 23.811 188.814 23.038 L 190.35 23.038 L 190.449 24.585 L 190.488 24.585 C 190.961 23.695 192.065 22.825 193.641 22.825 C 194.963 22.825 197.011 23.598 197.011 26.808 L 197.011 32.397 L 195.277 32.397 L 195.277 27.001 C 195.277 25.494 194.706 24.236 193.07 24.236 C 191.927 24.236 191.041 25.029 190.745 25.977 C 190.666 26.19 190.626 26.48 190.626 26.77 L 190.626 32.397 L 188.893 32.397 L 188.893 25.571 Z " fill="rgb(255,255,255)"/></g><g><path d=" M 206.252 26.731 C 206.252 26.441 206.233 26.19 206.153 25.958 C 205.838 24.971 204.991 24.159 203.73 24.159 C 202.074 24.159 200.892 25.532 200.892 27.698 C 200.892 29.536 201.838 31.063 203.71 31.063 C 204.774 31.063 205.74 30.406 206.114 29.323 C 206.213 29.033 206.252 28.703 206.252 28.414 L 206.252 26.731 Z  M 208.045 23.037 C 208.006 23.714 207.967 24.468 207.967 25.61 L 207.967 31.044 C 207.967 33.19 207.533 34.505 206.606 35.318 C 205.68 36.169 204.341 36.439 203.139 36.439 C 201.996 36.439 200.735 36.169 199.966 35.665 L 200.4 34.369 C 201.03 34.757 202.016 35.105 203.197 35.105 C 204.971 35.105 206.272 34.196 206.272 31.837 L 206.272 30.792 L 206.233 30.792 C 205.7 31.663 204.676 32.359 203.197 32.359 C 200.834 32.359 199.139 30.386 199.139 27.795 C 199.139 24.623 201.247 22.824 203.434 22.824 C 205.089 22.824 205.996 23.675 206.41 24.449 L 206.449 24.449 L 206.529 23.037 L 208.045 23.037 Z " fill="rgb(255,255,255)"/></g><g><path d=" M 292.825 64.456 C 293.873 64.029 293.956 63.953 293.569 62.868 C 291.353 56.666 283.019 53.316 275.921 56.222 C 270.32 58.513 266.267 64.324 266.267 70.822 C 266.267 79.578 272.707 87.366 281.456 87.366 C 285.467 87.366 288.318 86.822 290.857 85.241 C 291.401 84.745 294.469 82.336 294.498 81.821 C 294.504 81.702 294.066 82.075 293.399 82.437 C 291.422 83.458 288.458 83.85 286.134 83.891 C 281.432 83.976 277.676 80.83 275.226 77.098 C 273.65 74.694 272.629 71.947 272.378 68.997 C 271.989 64.463 273.118 59.25 278.336 57.969 C 281.808 57.117 285.097 59.026 286.375 62.307 C 286.954 63.797 286.605 64.571 285.201 65.139 L 272.647 70.285 L 276.927 70.554 C 282.024 68.478 287.728 66.531 292.825 64.456 Z " fill-rule="evenodd" fill="rgb(239,65,54)"/></g><g><path d=" M 254.177 39.202 L 263.548 39.202 C 262.245 40.032 261.806 40.375 261.246 41.246 C 260.844 41.871 260.741 43.055 260.668 44.124 C 260.122 56.405 260.456 68.779 260.375 81.062 C 260.428 84.41 261.768 84.015 266.204 83.889 C 265.535 84.445 264.45 85.545 263.61 86.018 C 259.609 86.018 255.788 85.934 251.787 85.934 C 253.294 84.406 254.067 83.421 253.963 79.6 C 254.043 66.765 253.526 54.447 254.323 42.087 C 252.447 42.14 250.743 42.113 248.866 42.166 C 250.637 41.271 252.314 40.007 254.177 39.202 Z " fill-rule="evenodd" fill="rgb(46,180,88)"/></g><g><path d=" M 240.601 67.823 C 241.315 72.074 240.215 76.105 236.299 77.168 C 232.29 78.256 227.857 75.196 226.43 69.717 C 224.868 63.707 226.485 59.892 230.261 58.741 C 234.732 57.375 239.512 61.334 240.601 67.823 Z  M 250.689 56.147 L 246.681 58.693 L 242.119 58.693 C 244.046 60.014 245.523 61.917 246.336 64.037 C 247.203 66.295 247.324 68.798 246.443 71.103 C 245.612 73.275 243.929 75.147 241.454 76.569 C 240.047 77.379 239.336 78.402 239.259 79.386 C 239.029 82.255 242.601 84.341 244.666 85.857 C 249.185 89.177 250.95 94.625 247.959 99.887 C 245.102 104.912 238.3 107.154 231.073 107.179 C 222.098 107.14 216.436 103.104 216.137 97.61 C 215.753 90.511 223.176 87.131 229.882 86.361 C 231.76 86.144 233.438 86.18 235.016 86.289 C 232.642 84.756 231.756 81.631 232.967 79.544 C 233.283 79 233.082 79.187 232.485 79.275 C 226.998 80.089 221.347 76.575 220.025 71.264 C 219.355 68.569 219.771 65.753 220.817 63.547 C 223.089 58.76 228.14 56.1 233.744 56.1 C 239.575 56.1 244.973 56.102 250.689 56.147 Z  M 237.236 88.119 C 237.909 88.603 238.611 89.075 239.335 89.523 C 243.272 91.971 244.528 94.963 244.207 97.724 C 243.821 101.053 240.567 103.677 234.994 104.009 C 229.041 104.363 221.031 102.051 222.514 94.371 C 223.305 90.278 228.838 88.165 233.413 88.015 C 234.679 87.974 235.968 88.078 237.236 88.119 Z " fill-rule="evenodd" fill="rgb(0,117,190)"/></g><g><path d=" M 209.876 71.549 C 210.494 77.573 208.433 83.168 202.925 84.419 C 197.29 85.698 191.316 81.11 189.823 73.314 C 188.186 64.763 190.891 59.131 196.211 57.747 C 202.513 56.106 208.937 62.351 209.876 71.549 Z  M 199.714 55.258 C 210.468 55.258 216.079 62.275 216.58 70.495 C 217.079 78.685 210.198 86.012 201.777 86.89 C 191.651 87.944 182.809 81.098 182.809 71.113 C 182.809 62.38 190.402 55.258 199.714 55.258 Z " fill-rule="evenodd" fill="rgb(255,223,28)"/></g><g><path d=" M 173.132 71.549 C 173.755 77.573 171.672 83.168 166.099 84.419 C 160.397 85.698 154.352 81.11 152.842 73.314 C 151.185 64.763 153.923 59.131 159.306 57.747 C 165.683 56.106 172.181 62.351 173.132 71.549 Z  M 162.848 55.258 C 173.731 55.258 179.408 62.275 179.916 70.495 C 180.42 78.685 173.458 86.012 164.938 86.89 C 154.692 87.944 145.743 81.098 145.743 71.113 C 145.743 62.38 153.428 55.258 162.848 55.258 Z " fill-rule="evenodd" fill="rgb(239,65,54)"/></g><g><path d=" M 135.807 50.865 L 140.699 45.97 C 132.395 39.225 118.154 38.339 108.717 43.021 C 100.509 47.095 94.541 55.183 94.249 64.217 C 93.941 73.726 99.573 81.246 105.287 85.029 C 114.719 91.271 131.072 89.881 140.923 85.001 L 140.921 84.095 L 140.922 84.095 L 140.922 74.13 L 143.216 71.495 L 128.864 71.495 L 123.549 74.431 L 133.872 74.13 L 133.872 82.913 C 133.872 84.159 133.888 84.359 131.796 85.023 C 128.851 85.782 125.525 85.931 122.487 85.682 C 112.181 84.839 104.324 76.846 102.462 66.875 C 100.697 57.417 105.242 48.469 112.927 44.778 C 116.68 42.975 121.182 42.128 126.063 43.661 C 129.123 44.622 131.901 46.354 134.321 48.74 L 132.636 51.749 L 135.807 50.865 Z " fill-rule="evenodd" fill="rgb(0,117,190)"/></g></g></g></g></svg>