<svg xmlns="http://www.w3.org/2000/svg" width="104" height="30"><path fill="#8FCA00" d="M36.9 1.5c-.5 0-.9.1-1.2.3-.3.2-.4.6-.4 1 0 .3.1.6.3.8.2.2.5.3 1 .4l.4.1c.3.1.4.1.5.2.1.1.1.2.1.3 0 .2-.1.3-.2.3-.1.1-.3.1-.6.1-.2 0-.5 0-.8-.1-.3-.1-.5-.2-.8-.4v1c.3.1.5.2.8.3.4.2.7.2.9.2.6 0 1-.1 1.3-.3.3-.2.4-.6.4-1.1 0-.4-.1-.6-.3-.8-.2-.2-.5-.4-1-.5l-.5-.1c-.2 0-.4-.1-.5-.2-.1-.1-.1-.1-.1-.3 0-.2 0-.3.2-.4.1-.1.4-.1.6-.1.2 0 .4 0 .6.1.2.1.5.2.7.3v-1c-.3-.1-.5-.1-.8-.2-.1.1-.4.1-.6.1zm28.7 0c-.7 0-1.3.2-1.7.6-.4.4-.6 1-.6 1.7s.2 1.3.6 1.7c.4.4 1 .6 1.7.6s1.2-.2 1.6-.6c.4-.4.6-1 .6-1.7s-.2-1.3-.6-1.7c-.4-.4-.9-.6-1.6-.6zm11.1 0c-.5 0-.9.1-1.2.3-.3.2-.4.6-.4 1 0 .3.1.6.3.8.2.2.5.3 1 .4l.4.1c.3.1.4.1.5.2.1.1.1.2.1.3 0 .2-.1.3-.2.3-.1.1-.3.1-.6.1-.2 0-.5 0-.8-.1-.3-.1-.5-.2-.8-.4v1c.3.1.6.2.8.3.5.2.7.2 1 .2.6 0 1-.1 1.3-.3.3-.2.4-.6.4-1.1 0-.4-.1-.6-.3-.8-.2-.2-.5-.4-1-.5l-.5-.1c-.2 0-.4-.1-.5-.2-.1-.1-.1-.1-.1-.3 0-.2.1-.3.2-.4.1-.1.3-.1.6-.1.2 0 .4 0 .7.1.2.1.4.2.7.3v-1c-.3-.1-.5-.1-.8-.2-.3.1-.5.1-.8.1zm12.2 0c-.7 0-1.4.2-1.8.6-.4.4-.6 1-.6 1.7s.2 1.2.6 1.6c.4.4 1 .6 1.7.6.3 0 .6 0 .9-.1l.9-.3V3.5h-1.8v.8h.7v.8c-.1 0-.1 0-.3.1h-.3c-.4 0-.7-.1-1-.4-.2-.3-.3-.6-.3-1.1 0-.5.1-.8.3-1.1.2-.3.6-.4 1.1-.4.2 0 .4 0 .7.1.2.1.5.2.7.3v-.8c-.2-.1-.5-.2-.8-.3h-.7zm-48.2.1l-1.6 4.3h1.1l.3-.8h1.7l.3.8h1.1L42 1.6h-1.3zm3.6 0v4.3h1.1V4.1h1.8v-.9h-1.8v-.8h1.9v-.8h-3zm4 0v4.3h3.1v-.8h-1.9v-1h1.8v-.9h-1.8v-.8h1.9v-.8h-3.1zm6.2 0v4.3h1.9c.6 0 1-.1 1.3-.3.3-.2.4-.5.4-.9 0-.3-.1-.5-.2-.7-.1-.2-.3-.3-.6-.4.2-.1.3-.2.4-.3.1-.1.1-.3.1-.5 0-.4-.1-.7-.4-.9-.3-.2-.7-.3-1.3-.3h-1.6zm4.5 0v4.3h1.2V4.3h.3c.2 0 .4 0 .5.1.1.1.2.2.3.4l.5 1.1H63l-.6-1.2c-.1-.3-.3-.5-.4-.6-.1-.1-.3-.2-.4-.2.3-.1.5-.2.6-.4.1-.2.2-.4.2-.7 0-.4-.2-.7-.4-.9-.3-.2-.6-.3-1.2-.3H59zm9.3 0l1 4.3h1.3l.8-3.3.8 3.3h1.3l1-4.3h-1.1l-.8 3.2-.6-3.2h-1.1l-.7 3.2-.8-3.2h-1.1zm11.2 0v4.3h1.1V1.6h-1.1zm2.2 0v4.3h1.1v-3l1.6 3h1.3V1.6h-1.1v3l-1.6-3h-1.3zm-66.5.3c-.5 0-1 .1-1.4.4-.1.1-.3.2-.4.3l-.1.1c-.4.3-.8.6-1.3.9-2.5 1.5-4.8 2.6-7 3.1-.1 2.7 0 5.1.4 7.2.4 2.3 1 4.4 1.9 6.2 1.2 2.5 3 4.7 5.7 7.1l.2.2s0 .1.1.1c.5.4 1.2.7 2 .7s1.5-.3 2-.7c.1-.1.2-.1.2-.2 2.7-2.4 4.5-4.6 5.7-7.1.9-1.8 1.5-3.9 1.9-6.2.3-2.1.4-4.5.4-7.2-2.2-.5-4.5-1.5-6.9-3.1-.6-.4-1-.7-1.4-1l-.1-.1c-.1-.1-.2-.2-.3-.2-.5-.3-1-.5-1.6-.5zm50.4.4c.3 0 .6.1.8.4.2.3.3.6.3 1.1 0 .5-.1.8-.3 1-.2.3-.4.4-.8.4-.3 0-.6-.2-.8-.4-.2-.3-.3-.6-.3-1 0-.5.1-.8.3-1.1.2-.3.4-.4.8-.4zm-10 0h.6c.2 0 .3 0 .4.1.1.1.1.2.1.4s0 .2-.1.3c-.1.1-.2.1-.4.1h-.6v-.9zm4.6.1h.5c.2 0 .4 0 .5.1.1.1.2.2.2.4s-.1.3-.2.4c-.1.1-.2.2-.5.2h-.5V2.4zm-18.8.2l.6 1.7h-1.2l.6-1.7zM55.6 4h.7c.2 0 .4.1.5.2.1.1.2.2.2.4s-.1.4-.2.5c-.1.1-.2.1-.5.1h-.7V4z"/><path fill="#FFF" d="M15.2 0c-.6 0-1.2.1-1.7.4-.2.1-.3.2-.5.3l-.1.1c-.5.3-1 .7-1.5 1-2.8 1.8-5.5 3-8 3.5-.1 3.1.1 5.9.4 8.3.4 2.7 1.1 5 2.2 7.1 1.4 2.9 3.4 5.4 6.6 8.2.1.1.2.1.3.2v.1c.6.5 1.4.8 2.3.8.9 0 1.7-.3 2.3-.8.1-.1.2-.1.3-.2 3.1-2.7 5.1-5.3 6.6-8.2 1-2.1 1.7-4.4 2.2-7.1.4-2.4.5-5.1.4-8.3-2.5-.6-5.2-1.8-8-3.5-.5-.3-1-.7-1.5-1l-.1-.1c-.1-.1-.2-.1-.3-.2-.6-.4-1.2-.6-1.9-.6zm0 1.9c.6 0 1.1.2 1.6.4.1.1.2.2.3.2l.1.1c.4.4.8.7 1.3 1 2.4 1.5 4.8 2.6 6.9 3.1.1 2.7 0 5.1-.4 7.2-.4 2.3-1 4.4-1.9 6.2-1.2 2.5-3 4.7-5.7 7.1l-.2.2c-.5.4-1.2.7-2 .7s-1.5-.3-2-.7c0 0 0-.1-.1-.1l-.2-.2c-2.7-2.4-4.5-4.6-5.7-7.1-.9-1.8-1.5-3.9-1.9-6.2-.3-2-.4-4.4-.3-7.1 2.2-.5 4.5-1.5 6.9-3.1.5-.3.9-.6 1.3-.9l.1-.1c.1-.1.3-.2.4-.3.5-.2 1-.4 1.5-.4zm6.4 5.4c-.3.1-.6.2-.8.5l-7.6 9.9L9.5 15c-.5-.5-1.4-.5-1.9 0s-.5 1.4 0 1.9l4.7 5.4c.3.3.7.5 1.2.5s.8-.2 1.2-.7L23 9.4c.4-.6.3-1.4-.3-1.8l-.1-.1c-.3-.2-.7-.3-1-.2zm62.9.5l-1.6.8h1.7V22c0 .4-.1.5-.6 1.2h3.9l.8-.5c-.4 0-.7-.1-1.1-.1-.7-.1-.9-.2-.9-1V9.1c.1-.8.3-.9 1-1.3h-3.2zm-42.4.5c-5.6 0-8.8 3.9-8.8 8.2 0 3.5 2.3 7.9 8.3 7.9 1.2 0 2.3-.2 3.6-.4l3.1-.7v-2.7c0-.2 0-.8.1-1 0-.2.1-.2.2-.3l.6-.6h-4.6l-1.8.9 3.3-.2v3.5c-.7.3-1.4.5-2.8.5-4.7 0-7.7-3.8-7.7-7.9 0-3.8 2.6-6.4 6-6.4 2.6 0 3.9 1.3 4.7 2.1l-.6.8.8-.2 1.8-1.7c-.5-.3-1.2-.9-2.9-1.3-1.1-.4-2.2-.5-3.3-.5zm13.4 4.9c-3.3 0-5.6 2.4-5.6 5.3 0 2.4 1.9 5.1 5.3 5.1 3.5 0 5.5-2.7 5.5-5.3 0-2.6-2-5.1-5.2-5.1zm11.8 0c-3.3 0-5.6 2.4-5.6 5.3 0 2.4 1.8 5.1 5.3 5.1s5.5-2.7 5.5-5.3c-.1-2.6-2-5.1-5.2-5.1zm26.1 0c-2.2 0-4.9 1.6-4.9 5 0 1.6.7 3.5 2.2 4.6 1.1.8 2.2.8 2.9.8.7 0 1.4-.1 2.1-.4.2-.1.5-.2.7-.4l1.1-1.1c-.7.4-1.5.8-2.6.8-2.1 0-3.9-1.6-4.5-4.3l1.7-.1 5.1-2.1c-.2-.5-.4-1.4-1.5-2.1-.7-.5-1.5-.7-2.3-.7zm4.4 0v.2h.5v1.4h.2v-1.4h.5v-.2h-1.2zm1.4 0v1.6h.2v-1.5l.4 1.5h.1l.4-1.5v1.5h.2v-1.6h-.3l-.4 1.3-.4-1.3h-.2zm-20.3.3c-1.2 0-2.6.2-3.9 1.2-.9.8-1.4 1.9-1.4 2.9 0 1.7 1.3 3.4 3.6 3.4h.7c-.1.3-.2.5-.2.8 0 .7.4 1.1.7 1.5-1 .1-2.8.2-4.2 1-1.3.8-1.7 1.9-1.7 2.7 0 1.6 1.5 3.1 4.7 3.1 3.7 0 5.7-2.1 5.7-4.1 0-1.5-.9-2.2-1.8-3l-.8-.6c-.2-.2-.6-.5-.6-.9 0-.5.3-.8.6-1.1.9-.7 1.8-1.5 1.8-3.1 0-1.7-1-2.5-1.5-2.9H82l1.4-.8h-4.5zm-23.9.3c2.7 0 3.6 3.7 3.6 5.6 0 .8-.1 1.7-.7 2.4-.5.7-1.3 1.1-2.2 1.1-2.6 0-3.7-3.5-3.7-5.7 0-.9.2-1.9 1-2.7.5-.4 1.2-.7 2-.7zm11.7 0c2.7 0 3.6 3.7 3.6 5.6 0 .8-.1 1.7-.7 2.4-.5.7-1.4 1.1-2.2 1.1-2.6 0-3.7-3.5-3.7-5.7 0-.9.2-1.9 1-2.7.6-.4 1.3-.7 2-.7zm26.1.1c1.2 0 2.2 1 2.2 1.9 0 .3-.2.4-.7.6L90.4 18c0-.4-.1-.8-.1-1.2 0-2.3 1.6-2.9 2.5-2.9zm-15.3.3c1.8 0 2.8 2.4 2.8 4 0 .4-.1 1.1-.6 1.6-.3.3-.9.6-1.5.6-1.9 0-2.7-2.4-2.7-3.9 0-.6.1-1.1.5-1.6.3-.4.9-.7 1.5-.7zm1.1 9.6h.5c1.7 1.2 2.4 1.8 2.4 2.9 0 1.3-1.1 2.3-3.2 2.3-2.3 0-3.8-1.1-3.8-2.7 0-1.5 1.4-2 1.8-2.2.9-.2 2.1-.3 2.3-.3z"/></svg>