<?xml version="1.0" standalone="no"?><!-- Generator: Gravit.io --><svg xmlns="http://www.w3.org/2000/svg" xmlns:xlink="http://www.w3.org/1999/xlink" style="isolation:isolate" viewBox="0 0 512 512" width="512" height="512"><defs><clipPath id="_clipPath_DaVxr3Kj36BZLY23dLNVx3MZdmQn7oFK"><rect width="512" height="512"/></clipPath></defs><g clip-path="url(#_clipPath_DaVxr3Kj36BZLY23dLNVx3MZdmQn7oFK)"><g><g><path d=" M 145.046 230.404 L 85.321 230.404 C 80.609 230.404 76.789 234.224 76.789 238.936 L 76.789 324.257 C 76.789 328.969 80.609 332.789 85.321 332.789 L 145.046 332.789 C 149.758 332.789 153.578 328.969 153.578 324.257 L 153.578 238.936 C 153.578 234.224 149.758 230.404 145.046 230.404 Z  M 136.514 315.725 L 93.853 315.725 L 93.853 247.468 L 136.514 247.468 L 136.514 315.725 L 136.514 315.725 Z " fill="none" vector-effect="non-scaling-stroke" stroke-width="1" stroke="rgb(255,255,255)" stroke-linejoin="miter" stroke-linecap="butt" stroke-miterlimit="4"/></g></g><g><g><path d=" M 290.091 230.404 L 230.366 230.404 C 225.654 230.404 221.834 234.224 221.834 238.936 L 221.834 324.257 C 221.834 328.969 225.654 332.789 230.366 332.789 L 290.091 332.789 C 294.803 332.789 298.623 328.969 298.623 324.257 L 298.623 238.936 C 298.623 234.224 294.803 230.404 290.091 230.404 Z  M 281.559 315.725 L 238.899 315.725 L 238.899 247.468 L 281.559 247.468 L 281.559 315.725 L 281.559 315.725 Z " fill="none" vector-effect="non-scaling-stroke" stroke-width="1" stroke="rgb(255,255,255)" stroke-linejoin="miter" stroke-linecap="butt" stroke-miterlimit="4"/></g></g><g><g><path d=" M 290.091 366.917 L 230.366 366.917 C 225.654 366.917 221.834 370.737 221.834 375.449 L 221.834 460.77 C 221.834 465.482 225.654 469.302 230.366 469.302 L 290.091 469.302 C 294.803 469.302 298.623 465.482 298.623 460.77 L 298.623 375.449 C 298.623 370.738 294.803 366.917 290.091 366.917 Z  M 281.559 452.238 L 238.899 452.238 L 238.899 383.981 L 281.559 383.981 L 281.559 452.238 L 281.559 452.238 Z " fill="none" vector-effect="non-scaling-stroke" stroke-width="1" stroke="rgb(255,255,255)" stroke-linejoin="miter" stroke-linecap="butt" stroke-miterlimit="4"/></g></g><g><g><path d=" M 426.605 230.404 L 366.88 230.404 C 362.168 230.404 358.348 234.224 358.348 238.936 L 358.348 324.257 C 358.348 328.969 362.168 332.789 366.88 332.789 L 426.605 332.789 C 431.317 332.789 435.137 328.969 435.137 324.257 L 435.137 238.936 C 435.137 234.224 431.317 230.404 426.605 230.404 Z  M 418.073 315.725 L 375.413 315.725 L 375.413 247.468 L 418.073 247.468 L 418.073 315.725 L 418.073 315.725 Z " fill="none" vector-effect="non-scaling-stroke" stroke-width="1" stroke="rgb(255,255,255)" stroke-linejoin="miter" stroke-linecap="butt" stroke-miterlimit="4"/></g></g><g><g><path d=" M 145.046 366.917 L 85.321 366.917 C 80.609 366.917 76.789 370.737 76.789 375.449 L 76.789 460.77 C 76.789 465.482 80.609 469.302 85.321 469.302 L 145.046 469.302 C 149.758 469.302 153.578 465.482 153.578 460.77 L 153.578 375.449 C 153.578 370.738 149.758 366.917 145.046 366.917 Z  M 136.514 452.238 L 93.853 452.238 L 93.853 383.981 L 136.514 383.981 L 136.514 452.238 L 136.514 452.238 Z " fill="none" vector-effect="non-scaling-stroke" stroke-width="1" stroke="rgb(255,255,255)" stroke-linejoin="miter" stroke-linecap="butt" stroke-miterlimit="4"/></g></g><g><g><path d=" M 426.605 366.917 L 366.88 366.917 C 362.168 366.917 358.348 370.737 358.348 375.449 L 358.348 460.77 C 358.348 465.482 362.168 469.302 366.88 469.302 L 426.605 469.302 C 431.317 469.302 435.137 465.482 435.137 460.77 L 435.137 375.449 C 435.137 370.738 431.317 366.917 426.605 366.917 Z  M 418.073 452.238 L 375.413 452.238 L 375.413 383.981 L 418.073 383.981 L 418.073 452.238 L 418.073 452.238 Z " fill="none" vector-effect="non-scaling-stroke" stroke-width="1" stroke="rgb(255,255,255)" stroke-linejoin="miter" stroke-linecap="butt" stroke-miterlimit="4"/></g></g><g><g><path d=" M 477.798 494.899 L 477.798 204.807 L 486.33 204.807 C 491.042 204.807 494.862 200.987 494.862 196.275 L 494.862 153.615 C 494.862 148.903 491.042 145.083 486.33 145.083 L 477.798 145.083 L 477.798 110.955 C 477.798 106.243 473.978 102.423 469.266 102.423 L 452.202 102.423 L 452.202 8.569 C 452.202 3.857 448.382 0.037 443.67 0.037 L 68.257 0.037 C 63.545 0.037 59.725 3.857 59.725 8.569 L 59.725 102.422 L 42.661 102.422 C 37.949 102.422 34.129 106.242 34.129 110.954 L 34.129 145.082 L 25.597 145.082 C 20.885 145.082 17.065 148.902 17.065 153.614 L 17.065 196.274 C 17.065 200.986 20.885 204.806 25.597 204.806 L 34.129 204.806 L 34.129 494.897 L 0 494.897 L 0 511.961 L 42.661 511.961 L 469.266 511.961 L 512 511.961 L 512 494.897 L 477.798 494.897 L 477.798 494.899 Z  M 76.789 17.101 L 435.137 17.101 L 435.137 102.422 L 76.789 102.422 L 76.789 17.101 L 76.789 17.101 Z  M 51.193 119.486 L 68.257 119.486 L 443.669 119.486 L 460.733 119.486 L 460.733 145.082 L 51.193 145.082 L 51.193 119.486 L 51.193 119.486 Z  M 460.733 494.899 L 51.193 494.899 L 51.193 204.807 L 460.734 204.807 L 460.734 494.899 L 460.733 494.899 Z  M 42.661 187.743 L 34.129 187.743 L 34.129 162.147 L 42.661 162.147 L 469.266 162.147 L 477.798 162.147 L 477.798 187.743 L 469.266 187.743 L 42.661 187.743 L 42.661 187.743 Z " fill="none" vector-effect="non-scaling-stroke" stroke-width="1" stroke="rgb(255,255,255)" stroke-linejoin="miter" stroke-linecap="butt" stroke-miterlimit="4"/></g></g><g><g><path d=" M 242.858 46.292 C 241.501 42.824 239.595 39.829 237.137 37.308 C 234.68 34.787 231.723 32.809 228.268 31.376 C 224.812 29.943 220.986 29.226 216.788 29.226 C 212.59 29.226 208.757 29.936 205.289 31.357 C 201.821 32.778 198.852 34.755 196.382 37.289 C 193.912 39.823 191.999 42.824 190.642 46.293 C 189.285 49.761 188.607 53.53 188.607 57.6 C 188.607 61.67 189.285 65.439 190.642 68.907 C 191.999 72.375 193.912 75.376 196.382 77.911 C 198.852 80.445 201.821 82.422 205.289 83.843 C 208.757 85.264 212.59 85.974 216.788 85.974 C 220.986 85.974 224.812 85.264 228.268 83.843 C 231.724 82.423 234.68 80.445 237.137 77.911 C 239.594 75.377 241.501 72.376 242.858 68.907 C 244.215 65.439 244.893 61.67 244.893 57.6 C 244.893 53.529 244.214 49.76 242.858 46.292 Z  M 233.086 65.796 C 232.28 68.215 231.121 70.263 229.611 71.939 C 228.101 73.616 226.264 74.902 224.101 75.798 C 221.938 76.694 219.5 77.142 216.787 77.142 C 214.074 77.142 211.629 76.694 209.454 75.798 C 207.278 74.902 205.429 73.616 203.906 71.939 C 202.383 70.262 201.212 68.215 200.393 65.796 C 199.574 63.377 199.164 60.645 199.164 57.599 C 199.164 54.553 199.574 51.821 200.393 49.402 C 201.212 46.983 202.383 44.929 203.906 43.24 C 205.429 41.551 207.278 40.258 209.454 39.362 C 211.63 38.466 214.074 38.018 216.787 38.018 C 219.5 38.018 221.938 38.466 224.101 39.362 C 226.264 40.258 228.1 41.551 229.611 43.24 C 231.121 44.929 232.279 46.983 233.086 49.402 C 233.892 51.821 234.295 54.553 234.295 57.599 C 234.295 60.645 233.893 63.377 233.086 65.796 Z " fill="none" vector-effect="non-scaling-stroke" stroke-width="1" stroke="rgb(255,255,255)" stroke-linejoin="miter" stroke-linecap="butt" stroke-miterlimit="4"/></g></g><g><g><mask id="_mask_ffZ8HLcvJPThPRDEabiWQNw0yP013tF8" x="-200%" y="-200%" width="400%" height="400%"><rect x="-200%" y="-200%" width="400%" height="400%" style="fill:white;"/><path d=" M 170.023 29.84 L 170.023 53.721 L 143.992 53.721 L 143.992 29.84 L 133.587 29.84 L 133.587 85.358 L 143.992 85.358 L 143.992 61.093 L 170.023 61.093 L 170.023 85.358 L 180.428 85.358 L 180.428 29.84 L 170.023 29.84 Z " fill="black" stroke="none"/></mask><path d=" M 170.023 29.84 L 170.023 53.721 L 143.992 53.721 L 143.992 29.84 L 133.587 29.84 L 133.587 85.358 L 143.992 85.358 L 143.992 61.093 L 170.023 61.093 L 170.023 85.358 L 180.428 85.358 L 180.428 29.84 L 170.023 29.84 Z " fill="none" mask="url(#_mask_ffZ8HLcvJPThPRDEabiWQNw0yP013tF8)" vector-effect="non-scaling-stroke" stroke-width="2" stroke="rgb(255,255,255)" stroke-linejoin="miter" stroke-linecap="butt" stroke-miterlimit="4"/></g></g><g><g><mask id="_mask_6jFjvCkiU14fPiSPuRJyJLkKrUzodawM" x="-200%" y="-200%" width="400%" height="400%"><rect x="-200%" y="-200%" width="400%" height="400%" style="fill:white;"/><path d=" M 350.017 76.834 L 350.017 29.84 L 339.688 29.84 L 339.688 85.358 L 372.247 85.358 L 372.247 76.834 L 350.017 76.834 Z " fill="black" stroke="none"/></mask><path d=" M 350.017 76.834 L 350.017 29.84 L 339.688 29.84 L 339.688 85.358 L 372.247 85.358 L 372.247 76.834 L 350.017 76.834 Z " fill="none" mask="url(#_mask_6jFjvCkiU14fPiSPuRJyJLkKrUzodawM)" vector-effect="non-scaling-stroke" stroke-width="2" stroke="rgb(255,255,255)" stroke-linejoin="miter" stroke-linecap="butt" stroke-miterlimit="4"/></g></g><g><g><mask id="_mask_nA9w98xZwg66OhQ9ixLBbwHzFQ7I9eTc" x="-200%" y="-200%" width="400%" height="400%"><rect x="-200%" y="-200%" width="400%" height="400%" style="fill:white;"/><path d=" M 245.353 29.84 L 245.353 38.325 L 262.132 38.325 L 262.132 85.358 L 272.46 85.358 L 272.46 38.325 L 289.161 38.325 L 289.161 29.84 L 245.353 29.84 Z " fill="black" stroke="none"/></mask><path d=" M 245.353 29.84 L 245.353 38.325 L 262.132 38.325 L 262.132 85.358 L 272.46 85.358 L 272.46 38.325 L 289.161 38.325 L 289.161 29.84 L 245.353 29.84 Z " fill="none" mask="url(#_mask_nA9w98xZwg66OhQ9ixLBbwHzFQ7I9eTc)" vector-effect="non-scaling-stroke" stroke-width="2" stroke="rgb(255,255,255)" stroke-linejoin="miter" stroke-linecap="butt" stroke-miterlimit="4"/></g></g><g><g><mask id="_mask_hsKeuvj5gQoM1tdca5B9rASTfSizMcGZ" x="-200%" y="-200%" width="400%" height="400%"><rect x="-200%" y="-200%" width="400%" height="400%" style="fill:white;"/><path d=" M 330.743 38.056 L 330.743 29.84 L 295.727 29.84 L 295.727 85.358 L 330.743 85.358 L 330.743 77.103 L 306.132 77.103 L 306.132 61.4 L 325.521 61.4 L 325.521 53.452 L 306.132 53.452 L 306.132 38.056 L 330.743 38.056 Z " fill="black" stroke="none"/></mask><path d=" M 330.743 38.056 L 330.743 29.84 L 295.727 29.84 L 295.727 85.358 L 330.743 85.358 L 330.743 77.103 L 306.132 77.103 L 306.132 61.4 L 325.521 61.4 L 325.521 53.452 L 306.132 53.452 L 306.132 38.056 L 330.743 38.056 Z " fill="none" mask="url(#_mask_hsKeuvj5gQoM1tdca5B9rASTfSizMcGZ)" vector-effect="non-scaling-stroke" stroke-width="2" stroke="rgb(255,255,255)" stroke-linejoin="miter" stroke-linecap="butt" stroke-miterlimit="4"/></g></g></g></svg>