<?xml version="1.0" standalone="no"?><!-- Generator: Gravit.io --><svg xmlns="http://www.w3.org/2000/svg" xmlns:xlink="http://www.w3.org/1999/xlink" style="isolation:isolate" viewBox="0 0 2500 466" width="2500" height="466"><defs><clipPath id="_clipPath_E9QtRSE7YBht55IXg6r46pndmHt49gv7"><rect width="2500" height="466"/></clipPath></defs><g clip-path="url(#_clipPath_E9QtRSE7YBht55IXg6r46pndmHt49gv7)"><rect width="2500" height="466" style="fill:rgb(88,148,66)"/><g><g><path d=" M 254.437 230.462 C 254.437 240.614 245.977 249.074 235.826 249.074 C 225.674 249.074 217.214 240.614 217.214 230.462 C 217.214 220.31 225.674 211.85 235.826 211.85 C 245.977 211.85 254.437 220.31 254.437 230.462 Z " fill="rgb(255,255,255)"/><path d=" M 479.468 230.462 C 479.468 240.614 471.008 249.074 460.856 249.074 C 450.705 249.074 442.245 240.614 442.245 230.462 C 442.245 220.31 450.705 211.85 460.856 211.85 C 471.008 211.85 479.468 220.31 479.468 230.462 Z " fill="rgb(255,255,255)"/><path d=" M 179.991 230.462 C 179.991 260.917 205.37 286.297 235.826 286.297 C 266.281 286.297 291.66 260.917 291.66 230.462 C 291.66 200.007 266.281 174.627 235.826 174.627 C 205.37 174.627 179.991 200.007 179.991 230.462 Z  M 198.603 230.462 C 198.603 210.159 215.522 193.239 235.826 193.239 C 256.129 193.239 273.049 210.159 273.049 230.462 C 273.049 250.766 256.129 267.685 235.826 267.685 C 215.522 267.685 198.603 250.766 198.603 230.462 Z  M 405.022 230.462 C 405.022 260.917 430.401 286.297 460.856 286.297 C 491.312 286.297 516.691 260.917 516.691 230.462 C 516.691 200.007 491.312 174.627 460.856 174.627 C 430.401 174.627 405.022 200.007 405.022 230.462 Z  M 425.325 230.462 C 425.325 210.159 442.245 193.239 462.548 193.239 C 482.852 193.239 499.772 210.159 499.772 230.462 C 499.772 250.766 482.852 267.685 462.548 267.685 C 440.553 267.685 425.325 250.766 425.325 230.462 Z " fill="rgb(255,255,255)"/><path d=" M 550.53 163.96 C 555.606 141.965 572.526 118.277 572.526 118.277 L 498.08 118.277 C 455.781 91.206 405.022 75.978 347.495 75.978 C 288.276 75.978 235.826 91.206 193.527 118.277 L 122.464 119.969 C 122.464 119.969 139.384 141.965 144.46 165.652 C 130.924 184.264 122.464 206.259 122.464 231.639 C 122.464 294.241 173.223 345 235.826 345 C 271.357 345 303.504 328.08 323.808 302.701 L 347.495 338.232 L 371.183 302.701 C 381.334 316.237 396.562 328.08 411.79 334.848 C 438.861 346.692 469.316 348.384 498.08 338.232 C 555.606 316.237 586.062 251.942 564.066 192.724 C 562.374 182.572 557.298 172.42 550.53 163.96 Z  M 347.495 97.974 C 388.102 97.974 425.325 104.742 457.473 119.969 C 445.629 119.969 433.785 121.661 421.941 126.737 C 393.178 136.889 371.183 157.192 359.339 185.956 C 354.263 197.799 350.879 211.335 349.187 224.871 C 345.803 167.344 296.736 121.661 239.21 119.969 C 269.665 104.742 306.888 97.974 347.495 97.974 Z  M 310.272 282.397 C 293.352 306.085 266.281 321.313 235.826 321.313 C 186.759 321.313 146.152 280.705 146.152 231.639 C 146.152 182.572 186.759 141.965 235.826 141.965 C 284.893 141.965 325.5 180.88 325.5 231.639 C 325.5 235.023 325.5 236.715 323.808 240.098 C 322.116 255.326 318.732 268.862 310.272 282.397 Z  M 491.312 316.237 C 469.316 324.696 443.937 323.005 421.941 312.853 C 406.714 306.085 393.178 294.241 384.718 280.705 C 381.334 275.63 377.95 268.862 374.566 262.094 C 371.183 255.326 371.183 246.866 369.491 240.098 C 367.799 224.871 369.491 207.951 376.258 194.415 C 386.41 172.42 405.022 155.5 427.017 147.041 C 474.392 130.121 525.151 153.808 542.071 199.491 C 562.374 246.866 536.995 299.317 491.312 316.237 Z " fill="rgb(255,255,255)"/></g><g><path d=" M 1741.671 96.797 C 1741.671 108.641 1751.823 118.793 1763.666 118.793 C 1775.51 118.793 1785.662 108.641 1785.662 96.797 C 1785.662 84.953 1775.51 74.802 1763.666 74.802 C 1751.823 74.802 1741.671 84.953 1741.671 96.797 Z " fill="rgb(255,255,255)"/><path d=" M 707.883 95.105 L 674.044 106.949 L 674.044 149.248 L 636.82 149.248 L 636.82 178.011 L 672.352 178.011 L 672.352 271.069 C 672.352 315.06 687.579 333.672 724.802 333.672 C 734.954 333.672 743.414 331.98 751.874 330.288 L 753.566 330.288 L 753.566 299.832 L 751.874 299.832 C 745.106 301.524 738.338 303.216 734.954 303.216 C 718.035 303.216 711.267 293.065 711.267 267.685 L 711.267 178.011 L 753.566 178.011 L 753.566 149.248 L 711.267 149.248 L 711.267 93.413 L 707.883 95.105 Z  M 821.244 178.011 L 821.244 149.248 L 787.405 149.248 L 787.405 330.288 L 824.628 330.288 L 824.628 238.922 C 824.628 201.699 839.856 179.703 870.311 179.703 C 873.695 179.703 878.771 179.703 883.847 181.395 L 885.539 181.395 L 885.539 147.556 L 870.311 145.864 C 850.008 145.864 831.396 157.708 821.244 178.011 Z  M 1083.498 144.172 C 1058.119 144.172 1037.815 156.016 1022.588 178.011 L 1022.588 149.248 L 988.748 149.248 L 988.748 403.042 L 1025.971 403.042 L 1025.971 304.908 C 1039.507 323.52 1058.119 331.98 1081.806 331.98 C 1127.489 331.98 1157.944 294.757 1157.944 235.538 C 1157.944 181.395 1127.489 144.172 1083.498 144.172 Z  M 1073.346 303.216 C 1044.583 303.216 1025.971 277.837 1025.971 238.922 C 1025.971 200.007 1044.583 176.319 1075.038 176.319 C 1103.802 176.319 1120.721 200.007 1120.721 238.922 C 1119.029 277.837 1102.11 303.216 1073.346 303.216 Z " fill="rgb(255,255,255)"/><path d=" M 1264.538 144.172 C 1242.542 144.172 1222.239 147.556 1205.319 157.708 L 1203.627 157.708 L 1203.627 188.163 L 1207.011 188.163 C 1223.931 178.011 1240.85 172.935 1256.078 172.935 C 1283.15 172.935 1298.377 188.163 1298.377 215.234 L 1298.377 216.926 L 1278.074 216.926 C 1217.163 216.926 1185.016 238.922 1185.016 277.837 C 1185.016 309.984 1208.703 331.98 1242.542 331.98 C 1267.922 331.98 1286.533 321.828 1301.761 303.216 L 1301.761 328.596 L 1335.6 328.596 L 1335.6 220.31 C 1332.216 169.551 1310.221 144.172 1264.538 144.172 Z  M 1296.685 254.15 C 1296.685 284.605 1278.074 304.908 1249.31 304.908 C 1232.391 304.908 1218.855 293.065 1218.855 276.145 C 1218.855 254.15 1239.159 242.306 1278.074 242.306 L 1296.685 242.306 L 1296.685 254.15 Z  M 1487.877 62.958 L 1487.877 172.935 C 1474.341 154.324 1455.73 144.172 1432.042 144.172 C 1388.051 144.172 1357.596 181.395 1357.596 235.538 C 1357.596 291.373 1388.051 331.98 1432.042 331.98 C 1457.421 331.98 1477.725 320.136 1491.261 298.14 L 1491.261 328.596 L 1525.1 328.596 L 1525.1 62.958 L 1487.877 62.958 Z  M 1440.502 301.524 C 1413.431 301.524 1394.819 277.837 1394.819 237.23 C 1394.819 198.315 1411.739 172.935 1438.81 172.935 C 1469.265 172.935 1487.877 196.623 1487.877 237.23 C 1487.877 277.837 1469.265 301.524 1440.502 301.524 Z  M 1687.528 149.248 L 1635.077 254.15 L 1587.702 149.248 L 1547.095 149.248 L 1635.077 330.288 L 1726.443 149.248 L 1687.528 149.248 L 1687.528 149.248 Z  M 1778.894 149.248 L 1745.055 149.248 L 1745.055 330.288 L 1782.278 330.288 L 1782.278 149.248 L 1778.894 149.248 Z  M 1824.577 194.931 C 1824.577 220.31 1841.497 233.846 1873.644 249.074 C 1893.947 259.225 1904.099 264.301 1904.099 279.529 C 1904.099 294.757 1890.563 303.216 1870.26 303.216 C 1856.724 303.216 1839.805 299.832 1824.577 291.373 L 1821.193 289.681 L 1819.501 321.828 L 1821.193 321.828 C 1836.421 328.596 1851.648 330.288 1868.568 330.288 C 1912.559 330.288 1943.014 308.292 1943.014 276.145 C 1943.014 249.074 1924.403 233.846 1892.255 220.31 C 1868.568 210.159 1860.108 203.391 1860.108 191.547 C 1860.108 181.395 1870.26 172.935 1887.18 172.935 C 1902.407 172.935 1917.635 176.319 1931.171 183.087 L 1934.554 184.779 L 1936.246 154.324 L 1934.554 154.324 C 1919.327 149.248 1904.099 147.556 1890.563 147.556 C 1851.648 147.556 1824.577 166.168 1824.577 194.931 L 1824.577 194.931 Z  M 2058.068 144.172 C 2002.233 144.172 1968.394 179.703 1968.394 238.922 C 1968.394 298.14 2002.233 333.672 2058.068 333.672 C 2113.902 333.672 2147.742 298.14 2147.742 238.922 C 2147.742 179.703 2113.902 144.172 2058.068 144.172 Z  M 2058.068 303.216 C 2027.612 303.216 2007.309 277.837 2007.309 238.922 C 2007.309 200.007 2027.612 172.935 2058.068 172.935 C 2088.523 172.935 2108.826 198.315 2108.826 238.922 C 2108.826 277.837 2090.215 303.216 2058.068 303.216 Z  M 2215.42 178.011 L 2215.42 149.248 L 2181.581 149.248 L 2181.581 330.288 L 2218.804 330.288 L 2218.804 238.922 C 2218.804 201.699 2234.032 179.703 2264.487 179.703 C 2267.871 179.703 2272.947 179.703 2278.023 181.395 L 2279.715 181.395 L 2281.406 145.864 L 2266.179 144.172 C 2242.491 145.864 2225.572 157.708 2215.42 178.011 L 2215.42 178.011 Z " fill="rgb(255,255,255)"/><path d=" M 951.525 149.248 L 917.686 149.248 L 917.686 330.288 L 953.217 330.288 L 953.217 149.248 L 951.525 149.248 Z  M 912.61 96.797 C 912.61 108.641 922.762 118.793 934.606 118.793 C 946.449 118.793 956.601 108.641 956.601 96.797 C 956.601 84.953 946.449 74.802 934.606 74.802 C 922.762 74.802 912.61 84.953 912.61 96.797 Z " fill="rgb(255,255,255)"/><path d=" M 2367.696 140.788 C 2374.464 147.556 2376.156 154.324 2376.156 164.476 C 2376.156 172.935 2372.772 181.395 2366.005 188.163 C 2359.237 194.931 2350.777 198.315 2342.317 198.315 C 2333.857 198.315 2325.397 194.931 2318.63 188.163 C 2311.862 181.395 2308.478 174.627 2308.478 166.168 C 2308.478 157.708 2311.862 149.248 2318.63 142.48 C 2325.397 135.712 2332.165 134.02 2340.625 134.02 C 2352.469 130.636 2360.929 134.02 2367.696 140.788 Z  M 2325.397 144.172 C 2320.322 149.248 2316.938 156.016 2316.938 162.784 C 2316.938 169.551 2320.322 176.319 2325.397 181.395 C 2330.473 186.471 2337.241 189.855 2344.009 189.855 C 2350.777 189.855 2357.545 186.471 2362.621 181.395 C 2367.696 176.319 2371.08 169.551 2371.08 162.784 C 2371.08 156.016 2367.696 149.248 2364.313 144.172 C 2359.237 139.096 2352.469 135.712 2345.701 135.712 C 2337.241 137.404 2330.473 139.096 2325.397 144.172 Z  M 2344.009 145.864 C 2354.161 145.864 2359.237 149.248 2359.237 156.016 C 2359.237 161.092 2355.853 164.476 2350.777 166.168 L 2359.237 181.395 L 2349.085 181.395 L 2342.317 167.86 L 2340.625 167.86 L 2340.625 181.395 L 2330.473 181.395 L 2330.473 145.864 L 2344.009 145.864 L 2344.009 145.864 Z  M 2340.625 161.092 L 2344.009 161.092 C 2349.085 161.092 2350.777 159.4 2350.777 156.016 C 2350.777 152.632 2349.085 150.94 2344.009 150.94 L 2340.625 150.94 L 2340.625 161.092 Z " fill="rgb(223,223,223)"/></g></g></g></svg>