<svg id="Layer_1" data-name="Layer 1" xmlns="http://www.w3.org/2000/svg" viewBox="0 0 2500 779"><defs><style>.cls-1{fill:none;}.cls-2{fill:#fff;}.cls-3{fill:#589441;}.cls-4{fill:#feda80;}.cls-5{fill:#a61e2e;}.cls-6{fill:#4a853e;}.cls-7{fill:#020202;}</style></defs><title>tripadvisor</title><path class="cls-1" d="M.55,0h2498.9V779H.55Z"/><path class="cls-1" d="M.55,0h2498.9V779H.55Z"/><path class="cls-2" d="M917,618.62c-96.23,0-172.61-77.9-172.61-172.6,0-96.23,77.9-172.61,172.61-172.61,96.23,0,172.6,77.9,172.6,172.61s-76.37,172.6-172.6,172.6m349.78-21.39c-88.59,0-160.38-70.26-160.38-157.32s71.79-157.33,160.38-157.33,160.38,70.26,160.38,157.33-71.79,157.32-160.38,157.32m346.73,10.7c-90.12,0-161.91-70.27-161.91-157.33s73.32-157.33,161.91-157.33c90.12,0,161.91,70.26,161.91,157.33s-73.31,157.33-161.91,157.33m342.15,10.69c-96.23,0-172.6-77.9-172.6-172.6,0-96.23,77.9-172.61,172.6-172.61s172.6,77.9,172.6,172.61c1.53,94.7-76.37,172.6-172.6,172.6M2307,607.93c-90.12,0-163.44-71.79-163.44-160.39S2216.88,287.16,2307,287.16,2470.43,359,2470.43,447.54,2397.12,607.93,2307,607.93"/><path class="cls-3" d="M917,307a137.47,137.47,0,1,0,137.47,137.47C1054.49,369.64,993.39,307,917,307m0,311.6c-96.23,0-172.61-77.9-172.61-172.6,0-96.23,77.9-172.61,172.61-172.61,96.23,0,172.6,77.9,172.6,172.61s-76.37,172.6-172.6,172.6M1263.75,307a136.89,136.89,0,0,0-137.47,137.47c0,76.37,62.62,137.47,137.47,137.47s137.47-61.1,137.47-137.47c0-74.85-61.1-137.47-137.47-137.47m0,311.6c-96.23,0-172.61-77.9-172.61-172.6,0-96.23,77.9-172.61,172.61-172.61s172.6,76.38,172.6,171.08c0,96.23-77.9,174.13-172.6,174.13M1610.48,307A136.9,136.9,0,0,0,1473,444.49c0,76.37,62.62,137.47,137.47,137.47S1748,520.86,1748,444.49c0-74.85-62.63-137.47-137.47-137.47m0,311.6c-96.23,0-172.6-77.9-172.6-172.6,0-96.23,77.9-172.61,172.6-172.61,96.23,0,172.6,77.9,172.6,172.61s-77.9,172.6-172.6,172.6M1955.68,307a137.47,137.47,0,1,0,137.47,137.47c1.53-74.85-61.1-137.47-137.47-137.47m0,311.6c-96.23,0-172.6-77.9-172.6-172.6,0-96.23,77.9-172.61,172.6-172.61s172.6,77.9,172.6,172.61c1.53,94.7-76.37,172.6-172.6,172.6M2302.41,307a136.9,136.9,0,0,0-137.47,137.47c0,76.37,62.63,137.47,137.47,137.47a136.89,136.89,0,0,0,137.47-137.47c0-74.85-61.09-137.47-137.47-137.47m0,311.6c-96.23,0-172.6-77.9-172.6-172.6,0-96.23,77.9-172.61,172.6-172.61,96.23,0,172.61,77.9,172.61,172.61,1.52,94.7-76.38,172.6-172.61,172.6"/><path class="cls-4" d="M154.82,293.27c64.15-7.64,244.39-13.75,194,245.92l56.52-4.58c-24.44-160.38,27.49-242.87,187.88-250.5-267.31-146.64-418.53,6.11-438.38,9.16Z"/><path class="cls-2" d="M402.26,498c29,79.43,117.62,119.14,195.52,90.12,79.43-29,119.14-117.62,90.12-195.52-29-79.42-117.62-119.14-195.52-90.11S373.24,418.52,402.26,498ZM359.5,444.49c0,84-68.74,152.74-152.75,152.74S54,528.5,54,444.49s68.73-152.75,152.74-152.75A152.22,152.22,0,0,1,359.5,444.49Z"/><path class="cls-5" d="M234.25,443a27.5,27.5,0,1,1-27.5-27.49C220.5,415.47,234.25,427.69,234.25,443Z"/><path class="cls-6" d="M573.34,443a27.5,27.5,0,1,1-27.49-27.49A27.37,27.37,0,0,1,573.34,443Z"/><path class="cls-7" d="M681.79,343.68c7.64-33.61,33.6-67.21,33.6-67.21h-113c-64.15-41.24-140.52-62.63-226.06-62.63-88.59,0-168,22.91-232.17,64.16H37.2s24.44,33.6,33.61,67.2C49.42,372.7,37.2,407.83,37.2,446c0,93.17,76.38,169.54,169.55,169.54,53.46,0,100.81-24.44,132.89-64.15l36.66,53.46,36.66-55a162.6,162.6,0,0,0,62.62,48.88c41.24,18.33,87.07,21.39,129.84,4.58,87.06-32.07,132.88-129.83,100.81-218.42C698.59,371.17,691,357.42,681.79,343.68Zm-142-67.21a133.64,133.64,0,0,0-53.47,10.69c-42.76,15.28-76.37,47.35-94.7,88.59-9.16,18.33-13.74,38.19-15.27,58.05-6.11-87.07-77.9-155.8-165-157.33q73.32-32.09,165-32.08C437.4,242.86,492.38,253.56,539.74,276.47Zm-331.46,304c-74.85,0-135.94-61.1-135.94-135.94s61.09-135.94,135.94-135.94,135.94,61.09,135.94,135.94C342.69,519.33,281.6,580.43,208.28,580.43Zm384.92-7.64c-33.61,12.22-70.27,10.7-103.87-4.58-32.08-15.27-58-42.77-70.26-76.37s-10.7-70.26,4.58-103.87,42.77-58,76.37-70.26c70.26-26,148.16,10.69,174.13,79.43,24.44,71.79-12.22,149.69-80.95,175.65Z"/><path class="cls-7" d="M205.22,359c-45.82,0-84,38.19-84,84s38.19,84,84,84,84-38.19,84-84S251.05,359,205.22,359Zm0,139a55,55,0,1,1,55-55A54.75,54.75,0,0,1,205.22,498ZM545.85,359c-45.83,0-84,38.19-84,84s38.18,84,84,84,84-38.19,84-84C628.33,397.14,591.67,359,545.85,359Zm0,139a55,55,0,1,1,55-55A54.76,54.76,0,0,1,545.85,498Z"/><path class="cls-2" d="M920.07,607.93a160.39,160.39,0,1,1,160.38-160.39A160.36,160.36,0,0,1,920.07,607.93"/><path class="cls-3" d="M817.73,446A99.29,99.29,0,1,0,917,346.73,99.09,99.09,0,0,0,817.73,446"/><path class="cls-3" d="M917,307a137.47,137.47,0,1,0,137.47,137.47C1054.49,369.64,993.39,307,917,307m0,311.6c-96.23,0-172.61-77.9-172.61-172.6S822.31,271.89,917,271.89c96.23,0,172.6,77.9,172.6,172.6,0,96.23-76.37,174.13-172.6,174.13M1164.46,443a99.29,99.29,0,1,0,99.29-99.28A99.09,99.09,0,0,0,1164.46,443M1511.19,446a99.29,99.29,0,1,0,99.29-99.29A99.09,99.09,0,0,0,1511.19,446m791.22-139a136.9,136.9,0,0,0-137.47,137.47c0,76.37,62.63,137.47,137.47,137.47s137.47-61.1,137.47-137.47c0-74.85-61.09-137.47-137.47-137.47m0,311.6c-96.23,0-172.6-77.9-172.6-172.6,0-96.23,77.9-172.61,172.6-172.61S2475,351.31,2475,446c1.52,94.7-76.38,172.6-172.61,172.6"/><path class="cls-2" d="M1957.21,607.93c-90.12,0-165-71.79-165-160.39s73.31-160.38,165-160.38c90.12,0,163.44,71.79,163.44,160.38s-73.32,160.39-163.44,160.39"/><path class="cls-3" d="M1856.4,446a99.29,99.29,0,1,0,99.28-99.29A99.08,99.08,0,0,0,1856.4,446"/><path class="cls-3" d="M1955.68,308.55A136.89,136.89,0,0,0,1818.21,446c0,76.37,62.63,137.47,137.47,137.47A136.9,136.9,0,0,0,2093.15,446c1.53-76.38-61.1-137.47-137.47-137.47m0,310.07c-96.23,0-172.6-77.9-172.6-172.6,0-96.23,77.9-172.61,172.6-172.61,96.23,0,172.6,77.9,172.6,172.61,1.53,94.7-76.37,172.6-172.6,172.6M2203.13,446a99.09,99.09,0,0,0,99.28,99.28V346.73A99.09,99.09,0,0,0,2203.13,446"/></svg>